<?xml version="1.0" encoding="UTF-8" standalone="no"?>
<svg
   xmlns:dc="http://purl.org/dc/elements/1.1/"
   xmlns:cc="http://creativecommons.org/ns#"
   xmlns:rdf="http://www.w3.org/1999/02/22-rdf-syntax-ns#"
   xmlns:svg="http://www.w3.org/2000/svg"
   xmlns="http://www.w3.org/2000/svg"
   xmlns:xlink="http://www.w3.org/1999/xlink"
   xmlns:sodipodi="http://sodipodi.sourceforge.net/DTD/sodipodi-0.dtd"
   xmlns:inkscape="http://www.inkscape.org/namespaces/inkscape"
   width="300"
   height="300"
   viewBox="0 0 79.374998 79.375002"
   version="1.1"
   id="svg8"
   inkscape:export-filename="C:\Users\Juan\OneDrive - Knights - University of Central Florida\Downloads\swamphacks_images\Icons\bicycle.png"
   inkscape:export-xdpi="96"
   inkscape:export-ydpi="96"
   inkscape:version="1.0.1 (3bc2e813f5, 2020-09-07)"
   sodipodi:docname="bicycle.svg">
  <defs
     id="defs2">
    <linearGradient
       id="linear-gradient-1"
       x1="256"
       y1="496"
       x2="256"
       y2="16"
       gradientUnits="userSpaceOnUse"
       gradientTransform="matrix(0.13780527,0,0,0.13780527,4.4084079,4.4090048)">
      <stop
         offset="0"
         stop-color="#12c2e9"
         id="stop4041" />
      <stop
         offset="0.5"
         stop-color="#c471ed"
         id="stop4043" />
      <stop
         offset="1"
         stop-color="#f64f59"
         id="stop4045" />
    </linearGradient>
    <linearGradient
       id="linear-gradient"
       x1="256"
       y1="496"
       x2="256"
       y2="16"
       gradientUnits="userSpaceOnUse"
       gradientTransform="matrix(0.11815586,0,0,0.11815586,-40.355523,-59.649114)"
       spreadMethod="pad">
      <stop
         offset="0"
         stop-color="#12c2e9"
         id="stop3722" />
      <stop
         offset="0.5"
         stop-color="#c471ed"
         id="stop3724" />
      <stop
         offset="1"
         stop-color="#f64f59"
         id="stop3726" />
    </linearGradient>
    <linearGradient
       id="linear-gradient-1-7"
       x1="256"
       y1="496"
       x2="256"
       y2="16"
       gradientUnits="userSpaceOnUse"
       gradientTransform="matrix(0.13780527,0,0,0.13780527,4.4084086,4.4090048)">
      <stop
         offset="0"
         stop-color="#12c2e9"
         id="stop4041-9" />
      <stop
         offset="0.5"
         stop-color="#c471ed"
         id="stop4043-5" />
      <stop
         offset="1"
         stop-color="#f64f59"
         id="stop4045-7" />
    </linearGradient>
    <linearGradient
       id="linear-gradient-8"
       x1="256"
       y1="480"
       x2="256"
       y2="32"
       gradientUnits="userSpaceOnUse"
       gradientTransform="matrix(0.14764692,0,0,0.14764692,1.8898422,1.8898985)">
      <stop
         offset="0"
         stop-color="#12c0e7"
         id="stop7316" />
      <stop
         offset="0.5"
         stop-color="#c271eb"
         id="stop7318" />
      <stop
         offset="1"
         stop-color="#f44f5a"
         id="stop7320" />
    </linearGradient>
    <linearGradient
       inkscape:collect="always"
       xlink:href="#linear-gradient"
       id="linearGradient5400"
       x1="248.81795"
       y1="438.23285"
       x2="248.81795"
       y2="84.280579"
       gradientUnits="userSpaceOnUse" />
    <linearGradient
       inkscape:collect="always"
       xlink:href="#linear-gradient"
       id="linearGradient1776"
       gradientUnits="userSpaceOnUse"
       x1="248.81795"
       y1="438.23285"
       x2="248.81795"
       y2="84.280579" />
    <linearGradient
       inkscape:collect="always"
       xlink:href="#linear-gradient"
       id="linearGradient1778"
       gradientUnits="userSpaceOnUse"
       x1="248.81795"
       y1="438.23285"
       x2="248.81795"
       y2="84.280579" />
    <linearGradient
       inkscape:collect="always"
       xlink:href="#linear-gradient"
       id="linearGradient1780"
       gradientUnits="userSpaceOnUse"
       x1="248.81795"
       y1="438.23285"
       x2="248.81795"
       y2="84.280579" />
    <linearGradient
       inkscape:collect="always"
       xlink:href="#linear-gradient"
       id="linearGradient1782"
       gradientUnits="userSpaceOnUse"
       x1="248.81795"
       y1="438.23285"
       x2="248.81795"
       y2="84.280579" />
    <linearGradient
       inkscape:collect="always"
       xlink:href="#linear-gradient"
       id="linearGradient1784"
       gradientUnits="userSpaceOnUse"
       x1="248.81795"
       y1="438.23285"
       x2="248.81795"
       y2="84.280579" />
    <linearGradient
       inkscape:collect="always"
       xlink:href="#linear-gradient"
       id="linearGradient1786"
       gradientUnits="userSpaceOnUse"
       x1="248.81795"
       y1="438.23285"
       x2="248.81795"
       y2="84.280579" />
    <linearGradient
       inkscape:collect="always"
       xlink:href="#linear-gradient"
       id="linearGradient1788"
       gradientUnits="userSpaceOnUse"
       x1="248.81795"
       y1="438.23285"
       x2="248.81795"
       y2="84.280579" />
    <linearGradient
       inkscape:collect="always"
       xlink:href="#linear-gradient"
       id="linearGradient1790"
       gradientUnits="userSpaceOnUse"
       x1="248.81795"
       y1="438.23285"
       x2="248.81795"
       y2="84.280579" />
    <linearGradient
       inkscape:collect="always"
       xlink:href="#linear-gradient"
       id="linearGradient1792"
       gradientUnits="userSpaceOnUse"
       x1="248.81795"
       y1="438.23285"
       x2="248.81795"
       y2="84.280579" />
    <linearGradient
       inkscape:collect="always"
       xlink:href="#linear-gradient"
       id="linearGradient1794"
       gradientUnits="userSpaceOnUse"
       x1="248.81795"
       y1="438.23285"
       x2="248.81795"
       y2="84.280579" />
    <linearGradient
       inkscape:collect="always"
       xlink:href="#linear-gradient"
       id="linearGradient1796"
       gradientUnits="userSpaceOnUse"
       x1="248.81795"
       y1="438.23285"
       x2="248.81795"
       y2="84.280579" />
    <linearGradient
       inkscape:collect="always"
       xlink:href="#linear-gradient"
       id="linearGradient1798"
       gradientUnits="userSpaceOnUse"
       x1="248.81795"
       y1="438.23285"
       x2="248.81795"
       y2="84.280579" />
    <linearGradient
       inkscape:collect="always"
       xlink:href="#linear-gradient"
       id="linearGradient1800"
       gradientUnits="userSpaceOnUse"
       x1="248.81795"
       y1="438.23285"
       x2="248.81795"
       y2="84.280579" />
    <linearGradient
       inkscape:collect="always"
       xlink:href="#linear-gradient"
       id="linearGradient1802"
       gradientUnits="userSpaceOnUse"
       x1="248.81795"
       y1="438.23285"
       x2="248.81795"
       y2="84.280579" />
    <linearGradient
       inkscape:collect="always"
       xlink:href="#linear-gradient"
       id="linearGradient1804"
       gradientUnits="userSpaceOnUse"
       x1="248.81795"
       y1="438.23285"
       x2="248.81795"
       y2="84.280579" />
    <linearGradient
       inkscape:collect="always"
       xlink:href="#linear-gradient"
       id="linearGradient1806"
       gradientUnits="userSpaceOnUse"
       x1="248.81795"
       y1="438.23285"
       x2="248.81795"
       y2="84.280579" />
    <linearGradient
       inkscape:collect="always"
       xlink:href="#linear-gradient"
       id="linearGradient1808"
       gradientUnits="userSpaceOnUse"
       x1="248.81795"
       y1="438.23285"
       x2="248.81795"
       y2="84.280579" />
    <linearGradient
       inkscape:collect="always"
       xlink:href="#linear-gradient"
       id="linearGradient1810"
       gradientUnits="userSpaceOnUse"
       x1="248.81795"
       y1="438.23285"
       x2="248.81795"
       y2="84.280579" />
    <linearGradient
       inkscape:collect="always"
       xlink:href="#linear-gradient"
       id="linearGradient1812"
       gradientUnits="userSpaceOnUse"
       x1="248.81795"
       y1="438.23285"
       x2="248.81795"
       y2="84.280579" />
    <linearGradient
       inkscape:collect="always"
       xlink:href="#linear-gradient"
       id="linearGradient1814"
       gradientUnits="userSpaceOnUse"
       x1="248.81795"
       y1="438.23285"
       x2="248.81795"
       y2="84.280579" />
    <linearGradient
       inkscape:collect="always"
       xlink:href="#linear-gradient"
       id="linearGradient1816"
       gradientUnits="userSpaceOnUse"
       x1="248.81795"
       y1="438.23285"
       x2="248.81795"
       y2="84.280579" />
  </defs>
  <sodipodi:namedview
     id="base"
     pagecolor="#ffffff"
     bordercolor="#666666"
     borderopacity="1.0"
     inkscape:pageopacity="0.0"
     inkscape:pageshadow="2"
     inkscape:zoom="0.35"
     inkscape:cx="400"
     inkscape:cy="560"
     inkscape:document-units="mm"
     inkscape:current-layer="layer1"
     inkscape:document-rotation="0"
     showgrid="false"
     units="px"
     inkscape:window-width="1498"
     inkscape:window-height="1033"
     inkscape:window-x="0"
     inkscape:window-y="0"
     inkscape:window-maximized="0" />
  <metadata
     id="metadata5">
    <rdf:RDF>
      <cc:Work
         rdf:about="">
        <dc:format>image/svg+xml</dc:format>
        <dc:type
           rdf:resource="http://purl.org/dc/dcmitype/StillImage" />
        <dc:title />
      </cc:Work>
    </rdf:RDF>
  </metadata>
  <g
     inkscape:label="Layer 1"
     inkscape:groupmode="layer"
     id="layer1">
    <g
       id="g4827"
       transform="matrix(0.15502899,0,0,0.15502899,1.045505e-6,7.856e-5)"
       style="fill:url(#linearGradient5400);fill-opacity:1"
       inkscape:export-filename="C:\Users\Juan\OneDrive - Knights - University of Central Florida\Downloads\swamphacks_images\Icons\bicycle.png"
       inkscape:export-xdpi="96"
       inkscape:export-ydpi="96">
      <g
         id="g4761"
         style="fill:url(#linearGradient1780);fill-opacity:1">
        <g
           id="g4759"
           style="fill:url(#linearGradient1778);fill-opacity:1">
          <path
             d="m 405.227,223.46 c -19.975,0 -39.197,5.481 -56.005,15.876 l -31.388,-32.489 18.622,-45.416 h 30.127 c 4.213,0 7.627,-3.415 7.627,-7.627 v -18.289 c 0,-6.307 -2.692,-12.34 -7.388,-16.552 -4.695,-4.212 -10.979,-6.238 -17.253,-5.555 l -53.101,5.773 c -17.71,1.925 -31.065,16.81 -31.065,34.624 0,4.212 3.414,7.627 7.627,7.627 h 13.971 l -11.269,27.479 -96.366,-1.254 c -0.116,-21.69 -8.632,-42.791 -24.491,-58.767 h 14.943 v 4.576 c 0,4.212 3.414,7.627 7.627,7.627 4.213,0 7.627,-3.415 7.627,-7.627 v -4.576 h 34.066 c 12.615,0 22.88,-10.264 22.88,-22.88 0,-12.615 -10.264,-22.88 -22.88,-22.88 h -34.066 v -0.508 c 0,-4.212 -3.414,-7.627 -7.627,-7.627 -4.213,0 -7.627,3.415 -7.627,7.627 v 0.508 h -22.341 c -17.809,0 -33.48,10.727 -39.925,27.329 -6.446,16.604 -2.119,35.096 11.022,47.11 l 2.392,2.188 c 11.785,10.774 15.733,27.372 10.057,42.291 l -8.577,22.563 c -5.163,-0.76 -10.411,-1.151 -15.674,-1.151 C 47.898,223.46 0,271.358 0,330.232 c 0,58.874 47.898,106.773 106.773,106.773 57.429,0 104.405,-45.578 106.678,-102.459 l 13.563,12.509 c 0.214,0.197 0.438,0.375 0.667,0.543 2.15,1.845 4.592,3.255 7.219,4.185 v 13.023 h -10.677 c -4.213,0 -7.627,3.415 -7.627,7.627 0,4.212 3.414,7.627 7.627,7.627 h 35.591 c 4.213,0 7.627,-3.415 7.627,-7.627 0,-4.212 -3.414,-7.627 -7.627,-7.627 h -9.66 v -11.694 h 50.781 c 4.904,22.396 16.972,42.771 34.474,57.907 19.376,16.757 44.171,25.985 69.819,25.985 58.874,0 106.773,-47.898 106.773,-106.773 C 512,271.358 464.102,223.46 405.227,223.46 Z M 185.073,98.383 h 34.066 c 4.206,0 7.627,3.422 7.627,7.627 0,4.205 -3.421,7.627 -7.627,7.627 h -34.066 z m 97.123,47.794 c 2.687,-6.366 8.652,-11.042 15.922,-11.832 l 53.101,-5.773 c 1.988,-0.217 3.921,0.402 5.419,1.745 1.496,1.342 2.32,3.188 2.32,5.198 v 10.662 z m -136.915,61.294 c 7.913,-20.802 2.41,-43.95 -14.02,-58.969 l -2.392,-2.188 c -8.461,-7.736 -11.248,-19.643 -7.097,-30.335 4.15,-10.689 14.24,-17.596 25.706,-17.596 h 22.341 v 15.253 h -22.341 c -5.291,0 -9.587,2.947 -11.485,7.87 -1.911,4.929 -0.721,9.997 3.175,13.55 l 2.382,2.178 c 21.079,19.266 28.139,48.966 17.987,75.665 L 113.901,332.94 c -1.12,2.943 -3.984,4.919 -7.128,4.919 -0.933,0 -1.841,-0.166 -2.715,-0.5 -1.904,-0.722 -3.411,-2.143 -4.245,-4 -0.835,-1.858 -0.895,-3.928 -0.168,-5.836 z M 85.898,339.607 c 2.505,5.578 7.033,9.844 12.728,12.005 2.602,0.996 5.343,1.501 8.147,1.501 9.434,0 18.028,-5.926 21.385,-14.75 l 20.33,-53.475 c 12.599,11.568 19.897,27.921 19.897,45.344 0,33.973 -27.64,61.613 -61.613,61.613 -33.973,0 -61.613,-27.64 -61.613,-61.613 0,-33.616 27.065,-61.013 60.547,-61.585 l -20.318,53.45 c -2.177,5.713 -1.996,11.931 0.51,17.51 z m 20.875,82.145 c -50.464,0 -91.519,-41.056 -91.519,-91.519 0,-50.464 41.056,-91.519 91.519,-91.519 3.385,0 6.76,0.19 10.103,0.556 l -5.417,14.25 c -1.563,-0.095 -3.127,-0.151 -4.686,-0.151 -42.385,0 -76.866,34.482 -76.866,76.866 0,42.384 34.481,76.866 76.866,76.866 42.385,0 76.866,-34.482 76.866,-76.866 0,-9.759 -1.838,-19.249 -5.283,-28.051 l 19.363,17.856 c 0.375,3.344 0.573,6.759 0.573,10.193 0,50.463 -41.056,91.519 -91.519,91.519 z m 135.753,-83.894 c -1.919,0 -3.746,-0.715 -5.147,-2.013 l -5.189,5.599 5.166,-5.601 -80.141,-73.908 5.843,-15.368 68.513,63.18 c 1.423,1.313 3.274,2.02 5.17,2.02 0.984,0 1.982,-0.191 2.935,-0.587 1.952,-0.81 3.433,-2.466 4.235,-4.421 l 31.532,-76.907 c 1.255,-3.063 0.417,-6.681 -2.322,-8.879 -1.362,-1.093 -3.095,-1.62 -4.841,-1.643 l -27.921,-0.366 c -4.212,-0.055 -7.67,3.314 -7.726,7.526 -0.055,4.212 3.314,7.671 7.526,7.726 l 16.918,0.222 -23.232,56.659 -62.662,-57.784 29.31,0.384 c 4.212,0.055 7.67,-3.314 7.726,-7.526 0.055,-4.212 -3.314,-7.671 -7.526,-7.726 l -26.815,-0.351 c 1.885,-5.001 3.272,-10.086 4.183,-15.198 l 102.662,1.336 c 0.034,0 0.066,0 0.101,0 3.09,0 5.88,-1.867 7.055,-4.733 l 15.61,-38.067 h 16.482 l -18.139,44.238 c -1.148,2.801 -0.531,6.016 1.572,8.192 l 107.309,111.072 c 2.378,2.464 2.854,6.225 1.047,9.243 -1.407,2.35 -4.046,3.682 -6.786,3.682 H 242.526 Z m 179.159,-23.521 -39.751,-41.144 c 7.354,-3.004 15.26,-4.574 23.294,-4.574 33.973,0 61.613,27.64 61.613,61.613 0,33.973 -27.64,61.613 -61.613,61.613 -14.28,0 -27.679,-4.741 -38.748,-13.708 -8.209,-6.65 -14.563,-15.326 -18.457,-25.025 h 57.206 c 9.204,0 17.472,-5.473 21.064,-13.943 3.59,-8.465 1.783,-18.211 -4.608,-24.832 z m -16.458,107.415 c -21.985,0 -43.238,-7.908 -59.841,-22.269 -14.153,-12.24 -24.164,-28.469 -28.784,-46.371 h 15.235 c 4.494,14.384 13.234,27.313 25.04,36.877 13.62,11.033 30.79,17.109 48.351,17.109 42.385,0 76.866,-34.482 76.866,-76.866 0,-42.384 -34.481,-76.866 -76.866,-76.866 -12.043,0 -23.859,2.825 -34.529,8.197 l -10.587,-10.958 c 13.699,-7.794 29.125,-11.893 45.116,-11.893 50.464,0 91.519,41.056 91.519,91.519 0,50.463 -41.056,91.521 -91.52,91.521 z"
             id="path4757"
             style="fill:url(#linearGradient1776);fill-opacity:1" />
        </g>
      </g>
      <g
         id="g4767"
         style="fill:url(#linearGradient1786);fill-opacity:1">
        <g
           id="g4765"
           style="fill:url(#linearGradient1784);fill-opacity:1">
          <path
             d="m 374.768,309.679 -73.027,-75.591 c -1.79,-1.853 -4.391,-2.676 -6.922,-2.191 -2.529,0.485 -4.642,2.214 -5.619,4.597 l -30.99,75.591 c -0.964,2.352 -0.694,5.031 0.723,7.142 1.417,2.111 3.792,3.378 6.334,3.378 h 104.018 c 3.061,0 5.826,-1.829 7.021,-4.647 1.194,-2.818 0.589,-6.077 -1.538,-8.279 z m -73.856,-2.329 h -24.277 l 22.248,-54.268 17.427,18.038 c -7.328,11.004 -12.569,23.334 -15.398,36.23 z m 30.93,0.002 h -15.245 v 0 c 2.271,-8.783 5.854,-17.212 10.609,-24.951 l 10.58,10.951 c -2.447,4.461 -4.434,9.141 -5.944,14 z m 16.175,0 c 0.318,-0.797 0.654,-1.586 1.006,-2.369 l 2.289,2.369 z"
             id="path4763"
             style="fill:url(#linearGradient1782);fill-opacity:1" />
        </g>
      </g>
      <g
         id="g4769"
         style="fill:url(#linearGradient1788);fill-opacity:1" />
      <g
         id="g4771"
         style="fill:url(#linearGradient1790);fill-opacity:1" />
      <g
         id="g4773"
         style="fill:url(#linearGradient1792);fill-opacity:1" />
      <g
         id="g4775"
         style="fill:url(#linearGradient1794);fill-opacity:1" />
      <g
         id="g4777"
         style="fill:url(#linearGradient1796);fill-opacity:1" />
      <g
         id="g4779"
         style="fill:url(#linearGradient1798);fill-opacity:1" />
      <g
         id="g4781"
         style="fill:url(#linearGradient1800);fill-opacity:1" />
      <g
         id="g4783"
         style="fill:url(#linearGradient1802);fill-opacity:1" />
      <g
         id="g4785"
         style="fill:url(#linearGradient1804);fill-opacity:1" />
      <g
         id="g4787"
         style="fill:url(#linearGradient1806);fill-opacity:1" />
      <g
         id="g4789"
         style="fill:url(#linearGradient1808);fill-opacity:1" />
      <g
         id="g4791"
         style="fill:url(#linearGradient1810);fill-opacity:1" />
      <g
         id="g4793"
         style="fill:url(#linearGradient1812);fill-opacity:1" />
      <g
         id="g4795"
         style="fill:url(#linearGradient1814);fill-opacity:1" />
      <g
         id="g4797"
         style="fill:url(#linearGradient1816);fill-opacity:1" />
    </g>
  </g>
</svg>
