<?xml version="1.0" encoding="UTF-8" standalone="no"?>
<svg
   xmlns:dc="http://purl.org/dc/elements/1.1/"
   xmlns:cc="http://creativecommons.org/ns#"
   xmlns:rdf="http://www.w3.org/1999/02/22-rdf-syntax-ns#"
   xmlns:svg="http://www.w3.org/2000/svg"
   xmlns="http://www.w3.org/2000/svg"
   xmlns:xlink="http://www.w3.org/1999/xlink"
   xmlns:sodipodi="http://sodipodi.sourceforge.net/DTD/sodipodi-0.dtd"
   xmlns:inkscape="http://www.inkscape.org/namespaces/inkscape"
   width="300"
   height="300"
   viewBox="0 0 79.374998 79.375002"
   version="1.1"
   id="svg8"
   inkscape:export-filename="C:\Users\Juan\OneDrive - Knights - University of Central Florida\Downloads\swamphacks_images\Icons\building_columns.png"
   inkscape:export-xdpi="96"
   inkscape:export-ydpi="96"
   inkscape:version="1.0.1 (3bc2e813f5, 2020-09-07)"
   sodipodi:docname="building_columns.svg">
  <defs
     id="defs2">
    <linearGradient
       id="linear-gradient-1"
       x1="256"
       y1="496"
       x2="256"
       y2="16"
       gradientUnits="userSpaceOnUse"
       gradientTransform="matrix(0.13780527,0,0,0.13780527,4.4084079,4.4090048)">
      <stop
         offset="0"
         stop-color="#12c2e9"
         id="stop4041" />
      <stop
         offset="0.5"
         stop-color="#c471ed"
         id="stop4043" />
      <stop
         offset="1"
         stop-color="#f64f59"
         id="stop4045" />
    </linearGradient>
    <linearGradient
       id="linear-gradient"
       x1="256"
       y1="496"
       x2="256"
       y2="16"
       gradientUnits="userSpaceOnUse"
       gradientTransform="matrix(0.11815586,0,0,0.11815586,-40.355523,-59.649114)"
       spreadMethod="pad">
      <stop
         offset="0"
         stop-color="#12c2e9"
         id="stop3722" />
      <stop
         offset="0.5"
         stop-color="#c471ed"
         id="stop3724" />
      <stop
         offset="1"
         stop-color="#f64f59"
         id="stop3726" />
    </linearGradient>
    <linearGradient
       id="linear-gradient-1-7"
       x1="256"
       y1="496"
       x2="256"
       y2="16"
       gradientUnits="userSpaceOnUse"
       gradientTransform="matrix(0.13780527,0,0,0.13780527,4.4084086,4.4090048)">
      <stop
         offset="0"
         stop-color="#12c2e9"
         id="stop4041-9" />
      <stop
         offset="0.5"
         stop-color="#c471ed"
         id="stop4043-5" />
      <stop
         offset="1"
         stop-color="#f64f59"
         id="stop4045-7" />
    </linearGradient>
    <linearGradient
       inkscape:collect="always"
       xlink:href="#linear-gradient"
       id="linearGradient5384"
       x1="256.36401"
       y1="508.78012"
       x2="256.36401"
       y2="16.542"
       gradientUnits="userSpaceOnUse" />
    <linearGradient
       inkscape:collect="always"
       xlink:href="#linear-gradient"
       id="linearGradient1210"
       gradientUnits="userSpaceOnUse"
       x1="256.36401"
       y1="508.78012"
       x2="256.36401"
       y2="16.542" />
    <linearGradient
       inkscape:collect="always"
       xlink:href="#linear-gradient"
       id="linearGradient1212"
       gradientUnits="userSpaceOnUse"
       x1="256.36401"
       y1="508.78012"
       x2="256.36401"
       y2="16.542" />
    <linearGradient
       inkscape:collect="always"
       xlink:href="#linear-gradient"
       id="linearGradient1214"
       gradientUnits="userSpaceOnUse"
       x1="256.36401"
       y1="508.78012"
       x2="256.36401"
       y2="16.542" />
    <linearGradient
       inkscape:collect="always"
       xlink:href="#linear-gradient"
       id="linearGradient1216"
       gradientUnits="userSpaceOnUse"
       x1="256.36401"
       y1="508.78012"
       x2="256.36401"
       y2="16.542" />
    <linearGradient
       inkscape:collect="always"
       xlink:href="#linear-gradient"
       id="linearGradient1218"
       gradientUnits="userSpaceOnUse"
       x1="256.36401"
       y1="508.78012"
       x2="256.36401"
       y2="16.542" />
    <linearGradient
       inkscape:collect="always"
       xlink:href="#linear-gradient"
       id="linearGradient1220"
       gradientUnits="userSpaceOnUse"
       x1="256.36401"
       y1="508.78012"
       x2="256.36401"
       y2="16.542" />
    <linearGradient
       inkscape:collect="always"
       xlink:href="#linear-gradient"
       id="linearGradient1222"
       gradientUnits="userSpaceOnUse"
       x1="256.36401"
       y1="508.78012"
       x2="256.36401"
       y2="16.542" />
    <linearGradient
       inkscape:collect="always"
       xlink:href="#linear-gradient"
       id="linearGradient1224"
       gradientUnits="userSpaceOnUse"
       x1="256.36401"
       y1="508.78012"
       x2="256.36401"
       y2="16.542" />
    <linearGradient
       inkscape:collect="always"
       xlink:href="#linear-gradient"
       id="linearGradient1226"
       gradientUnits="userSpaceOnUse"
       x1="256.36401"
       y1="508.78012"
       x2="256.36401"
       y2="16.542" />
    <linearGradient
       inkscape:collect="always"
       xlink:href="#linear-gradient"
       id="linearGradient1228"
       gradientUnits="userSpaceOnUse"
       x1="256.36401"
       y1="508.78012"
       x2="256.36401"
       y2="16.542" />
    <linearGradient
       inkscape:collect="always"
       xlink:href="#linear-gradient"
       id="linearGradient1230"
       gradientUnits="userSpaceOnUse"
       x1="256.36401"
       y1="508.78012"
       x2="256.36401"
       y2="16.542" />
    <linearGradient
       inkscape:collect="always"
       xlink:href="#linear-gradient"
       id="linearGradient1232"
       gradientUnits="userSpaceOnUse"
       x1="256.36401"
       y1="508.78012"
       x2="256.36401"
       y2="16.542" />
    <linearGradient
       inkscape:collect="always"
       xlink:href="#linear-gradient"
       id="linearGradient1234"
       gradientUnits="userSpaceOnUse"
       x1="256.36401"
       y1="508.78012"
       x2="256.36401"
       y2="16.542" />
    <linearGradient
       inkscape:collect="always"
       xlink:href="#linear-gradient"
       id="linearGradient1236"
       gradientUnits="userSpaceOnUse"
       x1="256.36401"
       y1="508.78012"
       x2="256.36401"
       y2="16.542" />
    <linearGradient
       inkscape:collect="always"
       xlink:href="#linear-gradient"
       id="linearGradient1238"
       gradientUnits="userSpaceOnUse"
       x1="256.36401"
       y1="508.78012"
       x2="256.36401"
       y2="16.542" />
    <linearGradient
       inkscape:collect="always"
       xlink:href="#linear-gradient"
       id="linearGradient1240"
       gradientUnits="userSpaceOnUse"
       x1="256.36401"
       y1="508.78012"
       x2="256.36401"
       y2="16.542" />
    <linearGradient
       inkscape:collect="always"
       xlink:href="#linear-gradient"
       id="linearGradient1242"
       gradientUnits="userSpaceOnUse"
       x1="256.36401"
       y1="508.78012"
       x2="256.36401"
       y2="16.542" />
    <linearGradient
       inkscape:collect="always"
       xlink:href="#linear-gradient"
       id="linearGradient1244"
       gradientUnits="userSpaceOnUse"
       x1="256.36401"
       y1="508.78012"
       x2="256.36401"
       y2="16.542" />
    <linearGradient
       inkscape:collect="always"
       xlink:href="#linear-gradient"
       id="linearGradient1246"
       gradientUnits="userSpaceOnUse"
       x1="256.36401"
       y1="508.78012"
       x2="256.36401"
       y2="16.542" />
    <linearGradient
       inkscape:collect="always"
       xlink:href="#linear-gradient"
       id="linearGradient1248"
       gradientUnits="userSpaceOnUse"
       x1="256.36401"
       y1="508.78012"
       x2="256.36401"
       y2="16.542" />
    <linearGradient
       inkscape:collect="always"
       xlink:href="#linear-gradient"
       id="linearGradient1250"
       gradientUnits="userSpaceOnUse"
       x1="256.36401"
       y1="508.78012"
       x2="256.36401"
       y2="16.542" />
    <linearGradient
       inkscape:collect="always"
       xlink:href="#linear-gradient"
       id="linearGradient1252"
       gradientUnits="userSpaceOnUse"
       x1="256.36401"
       y1="508.78012"
       x2="256.36401"
       y2="16.542" />
    <linearGradient
       inkscape:collect="always"
       xlink:href="#linear-gradient"
       id="linearGradient1254"
       gradientUnits="userSpaceOnUse"
       x1="256.36401"
       y1="508.78012"
       x2="256.36401"
       y2="16.542" />
    <linearGradient
       inkscape:collect="always"
       xlink:href="#linear-gradient"
       id="linearGradient1256"
       gradientUnits="userSpaceOnUse"
       x1="256.36401"
       y1="508.78012"
       x2="256.36401"
       y2="16.542" />
    <linearGradient
       inkscape:collect="always"
       xlink:href="#linear-gradient"
       id="linearGradient1258"
       gradientUnits="userSpaceOnUse"
       x1="256.36401"
       y1="508.78012"
       x2="256.36401"
       y2="16.542" />
    <linearGradient
       inkscape:collect="always"
       xlink:href="#linear-gradient"
       id="linearGradient1260"
       gradientUnits="userSpaceOnUse"
       x1="256.36401"
       y1="508.78012"
       x2="256.36401"
       y2="16.542" />
    <linearGradient
       inkscape:collect="always"
       xlink:href="#linear-gradient"
       id="linearGradient1262"
       gradientUnits="userSpaceOnUse"
       x1="256.36401"
       y1="508.78012"
       x2="256.36401"
       y2="16.542" />
    <linearGradient
       inkscape:collect="always"
       xlink:href="#linear-gradient"
       id="linearGradient1264"
       gradientUnits="userSpaceOnUse"
       x1="256.36401"
       y1="508.78012"
       x2="256.36401"
       y2="16.542" />
    <linearGradient
       inkscape:collect="always"
       xlink:href="#linear-gradient"
       id="linearGradient1266"
       gradientUnits="userSpaceOnUse"
       x1="256.36401"
       y1="508.78012"
       x2="256.36401"
       y2="16.542" />
    <linearGradient
       inkscape:collect="always"
       xlink:href="#linear-gradient"
       id="linearGradient1268"
       gradientUnits="userSpaceOnUse"
       x1="256.36401"
       y1="508.78012"
       x2="256.36401"
       y2="16.542" />
  </defs>
  <sodipodi:namedview
     id="base"
     pagecolor="#ffffff"
     bordercolor="#666666"
     borderopacity="1.0"
     inkscape:pageopacity="0.0"
     inkscape:pageshadow="2"
     inkscape:zoom="0.35"
     inkscape:cx="400"
     inkscape:cy="560"
     inkscape:document-units="mm"
     inkscape:current-layer="layer1"
     inkscape:document-rotation="0"
     showgrid="false"
     units="px"
     inkscape:window-width="1498"
     inkscape:window-height="1041"
     inkscape:window-x="-8"
     inkscape:window-y="0"
     inkscape:window-maximized="0" />
  <metadata
     id="metadata5">
    <rdf:RDF>
      <cc:Work
         rdf:about="">
        <dc:format>image/svg+xml</dc:format>
        <dc:type
           rdf:resource="http://purl.org/dc/dcmitype/StillImage" />
        <dc:title></dc:title>
      </cc:Work>
    </rdf:RDF>
  </metadata>
  <g
     inkscape:label="Layer 1"
     inkscape:groupmode="layer"
     id="layer1">
    <g
       id="g4291"
       transform="matrix(0.12919114,0,0,0.12919114,6.6145682,6.614552)"
       style="fill:url(#linearGradient5384);fill-opacity:1;stroke:none">
      <g
         id="g4198"
         style="fill:url(#linearGradient1214);fill-opacity:1;stroke:none">
        <g
           id="g4196"
           style="fill:url(#linearGradient1212);fill-opacity:1;stroke:none">
          <path
             d="m 104.293,310.644 c -4.2,0 -7.604,3.405 -7.604,7.604 v 85.16 c 0,4.199 3.404,7.604 7.604,7.604 4.2,0 7.604,-3.405 7.604,-7.604 v -85.16 c 0,-4.2 -3.404,-7.604 -7.604,-7.604 z"
             id="path4194"
             style="fill:url(#linearGradient1210);fill-opacity:1;stroke:none" />
        </g>
      </g>
      <g
         id="g4204"
         style="fill:url(#linearGradient1220);fill-opacity:1;stroke:none">
        <g
           id="g4202"
           style="fill:url(#linearGradient1218);fill-opacity:1;stroke:none">
          <path
             d="m 408.436,310.644 c -4.2,0 -7.604,3.405 -7.604,7.604 v 85.16 c 0,4.199 3.404,7.604 7.604,7.604 4.2,0 7.604,-3.405 7.604,-7.604 v -85.16 c 0,-4.2 -3.403,-7.604 -7.604,-7.604 z"
             id="path4200"
             style="fill:url(#linearGradient1216);fill-opacity:1;stroke:none" />
        </g>
      </g>
      <g
         id="g4210"
         style="fill:url(#linearGradient1226);fill-opacity:1;stroke:none">
        <g
           id="g4208"
           style="fill:url(#linearGradient1224);fill-opacity:1;stroke:none">
          <path
             d="m 256.368,310.644 c -4.2,0 -7.604,3.405 -7.604,7.604 v 85.16 c 0,4.199 3.404,7.604 7.604,7.604 4.2,0 7.604,-3.405 7.604,-7.604 v -85.16 c 0,-4.2 -3.404,-7.604 -7.604,-7.604 z"
             id="path4206"
             style="fill:url(#linearGradient1222);fill-opacity:1;stroke:none" />
        </g>
      </g>
      <g
         id="g4216"
         style="fill:url(#linearGradient1232);fill-opacity:1;stroke:none">
        <g
           id="g4214"
           style="fill:url(#linearGradient1230);fill-opacity:1;stroke:none">
          <path
             d="m 504.396,461.581 h -42.734 v -32.915 c 0,-4.199 -3.404,-7.604 -7.604,-7.604 h -7.283 V 297.939 h 7.283 c 4.2,0 7.604,-3.405 7.604,-7.604 V 257.42 h 8.363 c 4.2,0 7.604,-3.405 7.604,-7.604 v -38.018 c 0,-4.199 -3.404,-7.604 -7.604,-7.604 h -11.402 v -15.876 l 41.102,25.387 c 1.223,0.755 2.609,1.135 3.996,1.135 1.275,0 2.552,-0.32 3.704,-0.963 2.408,-1.343 3.9,-3.884 3.9,-6.641 v -46.853 c 0,-2.636 -1.366,-5.085 -3.608,-6.469 L 260.361,1.135 c -2.449,-1.513 -5.543,-1.513 -7.992,0 L 5.012,153.915 c -2.243,1.385 -3.608,3.833 -3.608,6.469 v 46.852 c 0,2.757 1.492,5.298 3.9,6.641 2.409,1.342 5.352,1.278 7.7,-0.171 l 41.105,-25.388 v 15.877 H 42.704 c -4.2,0 -7.604,3.405 -7.604,7.604 v 38.018 c 0,4.199 3.404,7.604 7.604,7.604 h 8.363 v 32.915 c 0,4.199 3.404,7.604 7.604,7.604 h 7.283 v 123.122 h -7.283 c -4.2,0 -7.604,3.405 -7.604,7.604 v 32.915 H 7.604 c -4.2,0 -7.604,3.405 -7.604,7.604 v 35.211 C 0,508.595 3.404,512 7.604,512 h 496.792 c 4.2,0 7.604,-3.405 7.604,-7.604 v -35.211 c 0,-4.2 -3.404,-7.604 -7.604,-7.604 z M 16.612,193.601 V 164.625 L 256.364,16.542 496.117,164.625 v 28.977 L 260.361,47.988 c -1.225,-0.756 -2.611,-1.135 -3.996,-1.135 -1.385,0 -2.771,0.378 -3.996,1.135 z m 42.059,48.611 h -8.363 v -22.81 H 362.01 c 4.199,0 7.604,-3.405 7.604,-7.604 0,-4.199 -3.405,-7.604 -7.604,-7.604 H 69.317 v -25.271 l 187.047,-115.53 187.05,115.532 v 25.268 h -45.918 c -4.199,0 -7.604,3.405 -7.604,7.604 0,4.199 3.405,7.604 7.604,7.604 h 64.924 v 22.81 h -8.363 -91.242 -60.826 -91.242 -60.833 -91.243 z m 387.782,40.519 h -7.281 -61.47 -7.283 V 257.42 h 76.035 v 25.311 z m -14.886,15.208 V 421.061 H 385.304 V 297.939 Z m -61.148,138.33 h 7.282 61.47 7.283 v 25.311 h -76.035 z m -68.43,-15.207 h -7.283 V 297.939 h 7.283 c 4.2,0 7.604,-3.405 7.604,-7.604 V 257.42 h 45.618 v 32.915 c 0,4.199 3.404,7.604 7.604,7.604 h 7.283 v 123.122 h -7.283 c -4.2,0 -7.604,3.405 -7.604,7.604 v 32.915 h -45.618 v -32.914 c 0,-4.199 -3.404,-7.604 -7.604,-7.604 z m -7.605,-138.331 h -7.282 -61.47 -7.283 V 257.42 h 76.035 z m -14.885,15.208 V 421.061 H 233.237 V 297.939 Z m -61.148,138.33 h 7.281 61.47 7.283 V 461.58 H 218.35 v -25.311 z m -68.436,-15.208 h -7.283 v -59.244 c 0,-4.199 -3.405,-7.604 -7.604,-7.604 -4.199,0 -7.604,3.405 -7.604,7.604 v 59.244 H 81.162 V 297.939 h 46.263 v 28.391 c 0,4.199 3.405,7.604 7.604,7.604 4.199,0 7.604,-3.405 7.604,-7.604 v -28.391 h 7.283 c 4.199,0 7.604,-3.405 7.604,-7.604 V 257.42 h 45.625 v 32.915 c 0,4.199 3.405,7.604 7.604,7.604 h 7.283 v 123.122 h -7.283 c -4.199,0 -7.604,3.405 -7.604,7.604 V 461.58 H 157.52 v -32.915 c -0.001,-4.199 -3.406,-7.604 -7.605,-7.604 z m -83.64,15.208 h 7.283 61.47 7.283 V 461.58 H 66.275 Z M 66.274,282.731 V 257.42 h 76.036 v 25.311 h -7.283 -61.47 z M 496.792,496.793 H 15.208 v -20.004 h 43.463 91.242 60.833 91.242 60.826 91.242 42.735 v 20.004 z"
             id="path4212"
             style="fill:url(#linearGradient1228);fill-opacity:1;stroke:none" />
        </g>
      </g>
      <g
         id="g4222"
         style="fill:url(#linearGradient1238);fill-opacity:1;stroke:none">
        <g
           id="g4220"
           style="fill:url(#linearGradient1236);fill-opacity:1;stroke:none">
          <path
             d="m 256.364,97.604 c -24.318,0 -44.103,19.785 -44.103,44.103 0,24.318 19.784,44.103 44.103,44.103 24.319,0 44.103,-19.784 44.103,-44.103 0,-24.319 -19.784,-44.103 -44.103,-44.103 z m 0,72.998 c -15.933,0 -28.895,-12.962 -28.895,-28.895 0,-15.933 12.962,-28.895 28.895,-28.895 15.933,0 28.895,12.962 28.895,28.895 0,15.933 -12.962,28.895 -28.895,28.895 z"
             id="path4218"
             style="fill:url(#linearGradient1234);fill-opacity:1;stroke:none" />
        </g>
      </g>
      <g
         id="g4224"
         style="fill:url(#linearGradient1240);fill-opacity:1;stroke:none" />
      <g
         id="g4226"
         style="fill:url(#linearGradient1242);fill-opacity:1;stroke:none" />
      <g
         id="g4228"
         style="fill:url(#linearGradient1244);fill-opacity:1;stroke:none" />
      <g
         id="g4230"
         style="fill:url(#linearGradient1246);fill-opacity:1;stroke:none" />
      <g
         id="g4232"
         style="fill:url(#linearGradient1248);fill-opacity:1;stroke:none" />
      <g
         id="g4234"
         style="fill:url(#linearGradient1250);fill-opacity:1;stroke:none" />
      <g
         id="g4236"
         style="fill:url(#linearGradient1252);fill-opacity:1;stroke:none" />
      <g
         id="g4238"
         style="fill:url(#linearGradient1254);fill-opacity:1;stroke:none" />
      <g
         id="g4240"
         style="fill:url(#linearGradient1256);fill-opacity:1;stroke:none" />
      <g
         id="g4242"
         style="fill:url(#linearGradient1258);fill-opacity:1;stroke:none" />
      <g
         id="g4244"
         style="fill:url(#linearGradient1260);fill-opacity:1;stroke:none" />
      <g
         id="g4246"
         style="fill:url(#linearGradient1262);fill-opacity:1;stroke:none" />
      <g
         id="g4248"
         style="fill:url(#linearGradient1264);fill-opacity:1;stroke:none" />
      <g
         id="g4250"
         style="fill:url(#linearGradient1266);fill-opacity:1;stroke:none" />
      <g
         id="g4252"
         style="fill:url(#linearGradient1268);fill-opacity:1;stroke:none" />
    </g>
  </g>
</svg>
