<?xml version="1.0" encoding="UTF-8" standalone="no"?>
<svg
   xmlns:dc="http://purl.org/dc/elements/1.1/"
   xmlns:cc="http://creativecommons.org/ns#"
   xmlns:rdf="http://www.w3.org/1999/02/22-rdf-syntax-ns#"
   xmlns:svg="http://www.w3.org/2000/svg"
   xmlns="http://www.w3.org/2000/svg"
   xmlns:sodipodi="http://sodipodi.sourceforge.net/DTD/sodipodi-0.dtd"
   xmlns:inkscape="http://www.inkscape.org/namespaces/inkscape"
   width="300"
   height="300"
   viewBox="0 0 79.374998 79.375002"
   version="1.1"
   id="svg8"
   inkscape:export-filename="C:\Users\Juan\OneDrive - Knights - University of Central Florida\Downloads\swamphacks_images\Icons\building.png"
   inkscape:export-xdpi="96"
   inkscape:export-ydpi="96"
   inkscape:version="1.0.1 (3bc2e813f5, 2020-09-07)"
   sodipodi:docname="campground.svg">
  <defs
     id="defs2">
    <linearGradient
       id="linear-gradient-1"
       x1="256"
       y1="496"
       x2="256"
       y2="16"
       gradientUnits="userSpaceOnUse"
       gradientTransform="matrix(0.13780527,0,0,0.13780527,4.4084079,4.4090048)">
      <stop
         offset="0"
         stop-color="#12c2e9"
         id="stop4041" />
      <stop
         offset="0.5"
         stop-color="#c471ed"
         id="stop4043" />
      <stop
         offset="1"
         stop-color="#f64f59"
         id="stop4045" />
    </linearGradient>
    <linearGradient
       id="linear-gradient"
       x1="256"
       y1="496"
       x2="256"
       y2="16"
       gradientUnits="userSpaceOnUse"
       gradientTransform="matrix(0.11815586,0,0,0.11815586,-40.355523,-59.649114)"
       spreadMethod="pad">
      <stop
         offset="0"
         stop-color="#12c2e9"
         id="stop3722" />
      <stop
         offset="0.5"
         stop-color="#c471ed"
         id="stop3724" />
      <stop
         offset="1"
         stop-color="#f64f59"
         id="stop3726" />
    </linearGradient>
    <linearGradient
       id="linear-gradient-1-7"
       x1="256"
       y1="496"
       x2="256"
       y2="16"
       gradientUnits="userSpaceOnUse"
       gradientTransform="matrix(0.13780527,0,0,0.13780527,4.4084084,4.4090045)">
      <stop
         offset="0"
         stop-color="#12c2e9"
         id="stop4041-9" />
      <stop
         offset="0.5"
         stop-color="#c471ed"
         id="stop4043-5" />
      <stop
         offset="1"
         stop-color="#f64f59"
         id="stop4045-7" />
    </linearGradient>
  </defs>
  <sodipodi:namedview
     id="base"
     pagecolor="#ffffff"
     bordercolor="#666666"
     borderopacity="1.0"
     inkscape:pageopacity="0.0"
     inkscape:pageshadow="2"
     inkscape:zoom="0.35"
     inkscape:cx="400"
     inkscape:cy="560"
     inkscape:document-units="mm"
     inkscape:current-layer="layer1"
     inkscape:document-rotation="0"
     showgrid="false"
     units="px"
     inkscape:window-width="1498"
     inkscape:window-height="1041"
     inkscape:window-x="-8"
     inkscape:window-y="0"
     inkscape:window-maximized="0" />
  <metadata
     id="metadata5">
    <rdf:RDF>
      <cc:Work
         rdf:about="">
        <dc:format>image/svg+xml</dc:format>
        <dc:type
           rdf:resource="http://purl.org/dc/dcmitype/StillImage" />
        <dc:title></dc:title>
      </cc:Work>
    </rdf:RDF>
  </metadata>
  <g
     inkscape:label="Layer 1"
     inkscape:groupmode="layer"
     id="layer1">
    <path
       d="m 67.549543,48.658277 a 6.6077626,6.6077626 0 0 0 -5.814134,-3.458912 v -5.583594 a 8.8159542,8.8159542 0 0 0 5.469758,-14.6272 7.7139252,7.7139252 0 0 0 -1.798487,-10.105674 5.5122106,5.5122106 0 1 0 -9.547428,0 7.7139252,7.7139252 0 0 0 -1.798503,10.105674 8.8159542,8.8159542 0 0 0 5.469771,14.6272 v 5.957734 a 6.5117123,6.5117123 0 0 0 -1.740337,0.926327 L 41.058,22.098655 44.957207,17.224897 a 1.1026598,1.1026598 0 0 0 -1.721745,-1.378053 l -3.548898,4.4365 -3.548899,-4.4365 a 1.1026594,1.1026594 0 1 0 -1.721744,1.378053 l 3.899881,4.874034 -16.73286,24.400901 a 6.5117123,6.5117123 0 0 0 -1.740338,-0.926327 v -5.957734 a 8.8159542,8.8159542 0 0 0 5.469759,-14.6272 7.7139252,7.7139252 0 0 0 -1.798489,-10.105674 5.5122106,5.5122106 0 1 0 -9.547429,0 7.7139252,7.7139252 0 0 0 -1.798502,10.105674 8.8159542,8.8159542 0 0 0 5.469772,14.6272 v 5.583594 a 6.6077626,6.6077626 0 0 0 -5.814149,3.458912 6.6146529,6.6146529 0 0 0 1.404386,13.077721 H 66.145175 A 6.6146529,6.6146529 0 0 0 67.549543,48.658277 Z M 12.125501,30.867616 a 6.6240237,6.6240237 0 0 1 2.211508,-4.934529 1.1024421,1.1024421 0 0 0 0.121709,-1.5171 5.4479931,5.4479931 0 0 1 -1.230739,-3.470348 5.519928,5.519928 0 0 1 2.845271,-4.824286 1.1024421,1.1024421 0 0 0 0.266096,-1.722566 3.3073266,3.3073266 0 1 1 4.801684,0 1.1024421,1.1024421 0 0 0 0.266097,1.722566 5.519928,5.519928 0 0 1 2.845269,4.824286 5.4479931,5.4479931 0 0 1 -1.230738,3.470348 1.1024421,1.1024421 0 0 0 0.121709,1.5171 6.6125857,6.6125857 0 0 1 -3.300706,11.455612 v -16.44306 a 1.1024451,1.1024451 0 0 0 -2.20489,0 v 16.44306 a 6.6242994,6.6242994 0 0 1 -5.512215,-6.521083 z m 0.546535,28.627253 a 4.4085282,4.4085282 0 0 1 0.02592,-8.750631 1.1024421,1.1024421 0 0 0 0.882911,-0.661466 4.4123869,4.4123869 0 0 1 6.752462,-1.760604 z m 11.049927,0.03624 h -8.401309 l 1.511866,-2.204881 h 8.428722 z m 14.862148,0 H 26.410954 L 38.584111,42.093922 Z m 0,-21.288983 L 26.80052,55.121344 H 18.344514 L 38.584111,25.60525 Z m 15.434196,-7.37451 a 6.6240237,6.6240237 0 0 1 2.211509,-4.934531 1.1024421,1.1024421 0 0 0 0.121709,-1.517099 5.4479931,5.4479931 0 0 1 -1.230739,-3.470347 5.519928,5.519928 0 0 1 2.845255,-4.824288 1.1024421,1.1024421 0 0 0 0.266097,-1.722564 3.3073266,3.3073266 0 1 1 4.801698,0 1.1024421,1.1024421 0 0 0 0.266097,1.722564 5.519928,5.519928 0 0 1 2.845268,4.824288 5.4479931,5.4479931 0 0 1 -1.230738,3.470347 1.1024421,1.1024421 0 0 0 0.121708,1.517099 6.6125857,6.6125857 0 0 1 -3.300703,11.455614 V 20.945644 a 1.102445,1.102445 0 0 0 -2.20489,0 v 16.443063 a 6.6242994,6.6242994 0 0 1 -5.512215,-6.52108 z M 40.789,25.605255 61.028596,55.121349 H 52.578381 L 40.789,38.233865 Z m 0,33.925859 v -17.44614 l 12.178962,17.446151 z m 14.867954,0 -1.53928,-2.204881 h 8.422929 l 1.511868,2.204881 z M 66.701078,59.494874 59.04008,48.322587 a 4.4123869,4.4123869 0 0 1 6.752448,1.7606 1.1024421,1.1024421 0 0 0 0.882925,0.661467 4.4085282,4.4085282 0 0 1 0.02593,8.750633 z m 6.058749,8.855782 a 1.1024421,1.1024421 0 0 1 -1.102439,1.102437 h -2.204887 a 1.1024421,1.1024421 0 0 1 0,-2.204882 h 2.204887 a 1.1024421,1.1024421 0 0 1 1.102439,1.102445 z m -7.717092,-1.102445 a 1.1024421,1.1024421 0 0 1 0,2.204882 h -2.204886 a 1.1024421,1.1024421 0 0 1 0,-2.204882 z m 1.10244,-1.102442 a 1.1024421,1.1024421 0 0 1 0,-2.204884 h 2.204886 a 1.1024421,1.1024421 0 0 1 0,2.204884 z M 41.891437,68.350656 A 1.1024421,1.1024421 0 0 1 40.789,69.453093 h -2.204889 a 1.1024421,1.1024421 0 0 1 0,-2.204882 H 40.789 a 1.1024421,1.1024421 0 0 1 1.102437,1.102445 z m -4.409763,2.204881 a 1.1024421,1.1024421 0 0 1 0,2.204882 h -2.204889 a 1.1024421,1.1024421 0 0 1 0,-2.204882 z m 4.409763,0 h 2.204889 a 1.1024421,1.1024421 0 0 1 0,2.204882 h -2.204889 a 1.1024421,1.1024421 0 0 1 0,-2.204882 z M 14.330389,65.043324 a 1.1024421,1.1024421 0 0 1 -1.102437,1.10244 h -2.20489 a 1.1024421,1.1024421 0 0 1 0,-2.204884 h 2.20489 a 1.1024421,1.1024421 0 0 1 1.102437,1.102444 z m -4.4097626,2.204882 a 1.1024421,1.1024421 0 0 1 0,2.204881 h -2.20489 a 1.1024421,1.1024421 0 0 1 0,-2.204881 z m 7.7170886,1.102445 a 1.1024421,1.1024421 0 0 1 -1.102438,1.102436 h -2.204888 a 1.1024421,1.1024421 0 0 1 0,-2.204881 h 2.204888 a 1.1024421,1.1024421 0 0 1 1.102438,1.102445 z"
       style="fill:url(#linear-gradient-1-7);stroke-width:0.137805"
       id="path4050" />
  </g>
</svg>
