<?xml version="1.0" encoding="UTF-8" standalone="no"?>
<svg
   xmlns:dc="http://purl.org/dc/elements/1.1/"
   xmlns:cc="http://creativecommons.org/ns#"
   xmlns:rdf="http://www.w3.org/1999/02/22-rdf-syntax-ns#"
   xmlns:svg="http://www.w3.org/2000/svg"
   xmlns="http://www.w3.org/2000/svg"
   xmlns:xlink="http://www.w3.org/1999/xlink"
   xmlns:sodipodi="http://sodipodi.sourceforge.net/DTD/sodipodi-0.dtd"
   xmlns:inkscape="http://www.inkscape.org/namespaces/inkscape"
   width="300"
   height="300"
   viewBox="0 0 79.374998 79.375002"
   version="1.1"
   id="svg8"
   inkscape:export-filename="C:\Users\Juan\OneDrive - Knights - University of Central Florida\Downloads\swamphacks_images\Icons\dining.png"
   inkscape:export-xdpi="96"
   inkscape:export-ydpi="96"
   inkscape:version="1.0.1 (3bc2e813f5, 2020-09-07)"
   sodipodi:docname="dining.svg">
  <defs
     id="defs2">
    <linearGradient
       id="linear-gradient-1"
       x1="256"
       y1="496"
       x2="256"
       y2="16"
       gradientUnits="userSpaceOnUse"
       gradientTransform="matrix(0.13780527,0,0,0.13780527,4.4084079,4.4090048)">
      <stop
         offset="0"
         stop-color="#12c2e9"
         id="stop4041" />
      <stop
         offset="0.5"
         stop-color="#c471ed"
         id="stop4043" />
      <stop
         offset="1"
         stop-color="#f64f59"
         id="stop4045" />
    </linearGradient>
    <linearGradient
       id="linear-gradient"
       x1="256"
       y1="496"
       x2="256"
       y2="16"
       gradientUnits="userSpaceOnUse"
       gradientTransform="matrix(0.11815586,0,0,0.11815586,-40.355523,-59.649114)"
       spreadMethod="pad">
      <stop
         offset="0"
         stop-color="#12c2e9"
         id="stop3722" />
      <stop
         offset="0.5"
         stop-color="#c471ed"
         id="stop3724" />
      <stop
         offset="1"
         stop-color="#f64f59"
         id="stop3726" />
    </linearGradient>
    <linearGradient
       id="linear-gradient-1-7"
       x1="256"
       y1="496"
       x2="256"
       y2="16"
       gradientUnits="userSpaceOnUse"
       gradientTransform="matrix(0.13780527,0,0,0.13780527,4.4084086,4.4090048)">
      <stop
         offset="0"
         stop-color="#12c2e9"
         id="stop4041-9" />
      <stop
         offset="0.5"
         stop-color="#c471ed"
         id="stop4043-5" />
      <stop
         offset="1"
         stop-color="#f64f59"
         id="stop4045-7" />
    </linearGradient>
    <linearGradient
       inkscape:collect="always"
       xlink:href="#linear-gradient"
       id="linearGradient5376"
       x1="-86.458061"
       y1="84.847191"
       x2="-86.458061"
       y2="19.117762"
       gradientUnits="userSpaceOnUse"
       gradientTransform="translate(126.1456,-12.502709)" />
  </defs>
  <sodipodi:namedview
     id="base"
     pagecolor="#ffffff"
     bordercolor="#666666"
     borderopacity="1.0"
     inkscape:pageopacity="0.0"
     inkscape:pageshadow="2"
     inkscape:zoom="0.35"
     inkscape:cx="400"
     inkscape:cy="560"
     inkscape:document-units="mm"
     inkscape:current-layer="layer1"
     inkscape:document-rotation="0"
     showgrid="false"
     units="px"
     inkscape:window-width="1498"
     inkscape:window-height="1041"
     inkscape:window-x="-8"
     inkscape:window-y="0"
     inkscape:window-maximized="0" />
  <metadata
     id="metadata5">
    <rdf:RDF>
      <cc:Work
         rdf:about="">
        <dc:format>image/svg+xml</dc:format>
        <dc:type
           rdf:resource="http://purl.org/dc/dcmitype/StillImage" />
        <dc:title></dc:title>
      </cc:Work>
    </rdf:RDF>
  </metadata>
  <g
     inkscape:label="Layer 1"
     inkscape:groupmode="layer"
     id="layer1">
    <path
       d="M 39.616052,6.6146818 A 33.001871,33.001871 0 0 0 16.280992,62.952317 33.001871,33.001871 0 1 0 62.951823,16.281481 32.785571,32.785571 0 0 0 39.616052,6.6146818 Z M 61.396192,61.396688 A 30.801765,30.801765 0 0 1 17.835922,17.836417 30.801765,30.801765 0 0 1 61.396192,61.396688 Z M 39.616052,13.215057 c -14.55781,0 -26.40149,11.843684 -26.40149,26.401496 a 26.411122,26.411122 0 0 0 17.68227,24.926457 3.297437,3.297437 0 0 0 5.811481,1.313331 26.441787,26.441787 0 0 0 7.808518,-0.294124 3.2989494,3.2989494 0 0 0 6.099852,-1.74429 v -0.195119 a 26.371245,26.371245 0 0 0 15.40087,-24.006255 c 0,-14.557812 -11.843682,-26.401496 -26.401501,-26.401496 z m -3.851169,23.75901 a 1.1000624,1.1000624 0 0 0 -0.549072,0.952243 v 25.891617 a 1.1000665,1.1000665 0 0 1 -2.200129,0 V 37.92631 a 1.1000624,1.1000624 0 0 0 -0.54906,-0.952243 3.3128379,3.3128379 0 0 1 -1.65106,-2.857825 h 6.600371 a 3.3128379,3.3128379 0 0 1 -1.65105,2.857825 z m 12.651679,26.84386 a 1.100065,1.100065 0 0 1 -2.20013,0 V 44.016804 a 1.1000624,1.1000624 0 0 0 -1.10006,-1.100066 H 44.016314 V 28.61593 a 3.3040373,3.3040373 0 0 1 3.300179,-3.300189 h 1.100069 z m 2.200121,-2.638353 V 24.215679 a 1.1000624,1.1000624 0 0 0 -1.10006,-1.100061 h -2.20013 a 5.5064999,5.5064999 0 0 0 -5.500312,5.500312 v 15.400874 a 1.1000624,1.1000624 0 0 0 1.100061,1.100056 h 1.100072 v 18.299959 a 24.401446,24.401446 0 0 1 -4.400262,0.401108 c -0.73387,0 -1.470229,-0.03538 -2.200119,-0.100901 V 38.514998 a 5.5202505,5.5202505 0 0 0 2.200119,-4.398735 v -9.900561 a 1.1000624,1.1000624 0 0 0 -2.200119,0 v 7.700437 h -2.200122 v -7.700437 a 1.1000665,1.1000665 0 0 0 -2.200129,0 v 7.700437 h -2.20012 v -7.700437 a 1.1000624,1.1000624 0 0 0 -2.20012,0 v 9.900561 a 5.5202505,5.5202505 0 0 0 2.20012,4.398735 V 62.168682 A 24.215123,24.215123 0 0 1 15.414692,39.616577 c 0,-13.344719 10.85664,-24.201372 24.20136,-24.201372 13.344731,0 24.201379,10.856653 24.201379,24.201372 A 24.172908,24.172908 0 0 1 50.616683,61.179595 Z"
       style="fill:url(#linearGradient5376);fill-opacity:1;stroke-width:0.137508"
       id="path3731" />
  </g>
</svg>
