<?xml version="1.0" encoding="UTF-8" standalone="no"?>
<svg
   xmlns:dc="http://purl.org/dc/elements/1.1/"
   xmlns:cc="http://creativecommons.org/ns#"
   xmlns:rdf="http://www.w3.org/1999/02/22-rdf-syntax-ns#"
   xmlns:svg="http://www.w3.org/2000/svg"
   xmlns="http://www.w3.org/2000/svg"
   xmlns:xlink="http://www.w3.org/1999/xlink"
   xmlns:sodipodi="http://sodipodi.sourceforge.net/DTD/sodipodi-0.dtd"
   xmlns:inkscape="http://www.inkscape.org/namespaces/inkscape"
   width="300"
   height="300"
   viewBox="0 0 79.374999 79.374999"
   version="1.1"
   id="svg8"
   inkscape:version="1.0.1 (3bc2e813f5, 2020-09-07)"
   sodipodi:docname="ferris_wheel.svg"
   inkscape:export-filename="C:\Users\Juan\OneDrive - Knights - University of Central Florida\Downloads\swamphacks_images\Icons\svg\ferris_wheel.png"
   inkscape:export-xdpi="96"
   inkscape:export-ydpi="96">
  <defs
     id="defs2">
    <linearGradient
       inkscape:collect="always"
       xlink:href="#linear-gradient"
       id="linearGradient3751"
       gradientUnits="userSpaceOnUse"
       x1="22.826"
       y1="256"
       x2="489.17401"
       y2="256" />
    <linearGradient
       id="linear-gradient"
       x1="256"
       y1="496"
       x2="256"
       y2="16"
       gradientUnits="userSpaceOnUse"
       gradientTransform="matrix(0.11815586,0,0,0.11815586,-40.355523,-59.649114)"
       spreadMethod="pad">
      <stop
         offset="0"
         stop-color="#12c2e9"
         id="stop3722" />
      <stop
         offset="0.5"
         stop-color="#c471ed"
         id="stop3724" />
      <stop
         offset="1"
         stop-color="#f64f59"
         id="stop3726" />
    </linearGradient>
    <linearGradient
       inkscape:collect="always"
       xlink:href="#linear-gradient"
       id="linearGradient5318"
       gradientUnits="userSpaceOnUse"
       x1="237.065"
       y1="498.86719"
       x2="237.065"
       y2="38.824001" />
    <linearGradient
       inkscape:collect="always"
       xlink:href="#linear-gradient"
       id="linearGradient153"
       gradientUnits="userSpaceOnUse"
       x1="22.826"
       y1="256"
       x2="489.17401"
       y2="256" />
    <linearGradient
       inkscape:collect="always"
       xlink:href="#linear-gradient"
       id="linearGradient155"
       gradientUnits="userSpaceOnUse"
       x1="22.826"
       y1="256"
       x2="489.17401"
       y2="256" />
    <linearGradient
       inkscape:collect="always"
       xlink:href="#linear-gradient"
       id="linearGradient157"
       gradientUnits="userSpaceOnUse"
       x1="22.826"
       y1="256"
       x2="489.17401"
       y2="256" />
    <linearGradient
       inkscape:collect="always"
       xlink:href="#linear-gradient"
       id="linearGradient159"
       gradientUnits="userSpaceOnUse"
       x1="22.826"
       y1="256"
       x2="489.17401"
       y2="256" />
    <linearGradient
       inkscape:collect="always"
       xlink:href="#linear-gradient"
       id="linearGradient161"
       gradientUnits="userSpaceOnUse"
       x1="22.826"
       y1="256"
       x2="489.17401"
       y2="256" />
    <linearGradient
       inkscape:collect="always"
       xlink:href="#linear-gradient"
       id="linearGradient163"
       gradientUnits="userSpaceOnUse"
       x1="22.826"
       y1="256"
       x2="489.17401"
       y2="256" />
    <linearGradient
       inkscape:collect="always"
       xlink:href="#linear-gradient"
       id="linearGradient165"
       gradientUnits="userSpaceOnUse"
       x1="22.826"
       y1="256"
       x2="489.17401"
       y2="256" />
    <linearGradient
       inkscape:collect="always"
       xlink:href="#linear-gradient"
       id="linearGradient167"
       gradientUnits="userSpaceOnUse"
       x1="22.826"
       y1="256"
       x2="489.17401"
       y2="256" />
    <linearGradient
       inkscape:collect="always"
       xlink:href="#linear-gradient"
       id="linearGradient169"
       gradientUnits="userSpaceOnUse"
       x1="22.826"
       y1="256"
       x2="489.17401"
       y2="256" />
    <linearGradient
       inkscape:collect="always"
       xlink:href="#linear-gradient"
       id="linearGradient171"
       gradientUnits="userSpaceOnUse"
       x1="22.826"
       y1="256"
       x2="489.17401"
       y2="256" />
    <linearGradient
       inkscape:collect="always"
       xlink:href="#linear-gradient"
       id="linearGradient173"
       gradientUnits="userSpaceOnUse"
       x1="22.826"
       y1="256"
       x2="489.17401"
       y2="256" />
    <linearGradient
       inkscape:collect="always"
       xlink:href="#linear-gradient"
       id="linearGradient175"
       gradientUnits="userSpaceOnUse"
       x1="22.826"
       y1="256"
       x2="489.17401"
       y2="256" />
    <linearGradient
       inkscape:collect="always"
       xlink:href="#linear-gradient"
       id="linearGradient177"
       gradientUnits="userSpaceOnUse"
       x1="22.826"
       y1="256"
       x2="489.17401"
       y2="256" />
    <linearGradient
       inkscape:collect="always"
       xlink:href="#linear-gradient"
       id="linearGradient179"
       gradientUnits="userSpaceOnUse"
       x1="22.826"
       y1="256"
       x2="489.17401"
       y2="256" />
    <linearGradient
       inkscape:collect="always"
       xlink:href="#linear-gradient"
       id="linearGradient181"
       gradientUnits="userSpaceOnUse"
       x1="22.826"
       y1="256"
       x2="489.17401"
       y2="256" />
    <linearGradient
       inkscape:collect="always"
       xlink:href="#linear-gradient"
       id="linearGradient183"
       gradientUnits="userSpaceOnUse"
       x1="22.826"
       y1="256"
       x2="489.17401"
       y2="256" />
    <linearGradient
       inkscape:collect="always"
       xlink:href="#linear-gradient"
       id="linearGradient185"
       gradientUnits="userSpaceOnUse"
       x1="22.826"
       y1="256"
       x2="489.17401"
       y2="256" />
  </defs>
  <sodipodi:namedview
     id="base"
     pagecolor="#ffffff"
     bordercolor="#666666"
     borderopacity="1.0"
     inkscape:pageopacity="0.0"
     inkscape:pageshadow="2"
     inkscape:zoom="0.35"
     inkscape:cx="400"
     inkscape:cy="445.71429"
     inkscape:document-units="mm"
     inkscape:current-layer="layer1"
     inkscape:document-rotation="0"
     showgrid="false"
     units="px"
     inkscape:window-width="1431"
     inkscape:window-height="1033"
     inkscape:window-x="96"
     inkscape:window-y="0"
     inkscape:window-maximized="0" />
  <metadata
     id="metadata5">
    <rdf:RDF>
      <cc:Work
         rdf:about="">
        <dc:format>image/svg+xml</dc:format>
        <dc:type
           rdf:resource="http://purl.org/dc/dcmitype/StillImage" />
        <dc:title />
      </cc:Work>
    </rdf:RDF>
  </metadata>
  <g
     inkscape:label="Layer 1"
     inkscape:groupmode="layer"
     id="layer1">
    <g
       id="g2251"
       transform="matrix(0.12919108,0,0,0.12919108,6.6145835,6.6145835)"
       style="fill:url(#linearGradient3751);fill-opacity:1;stroke:none">
      <g
         id="g2194"
         style="fill:url(#linearGradient155);fill-opacity:1;stroke:none">
        <g
           id="g2192"
           style="fill:url(#linearGradient153);fill-opacity:1;stroke:none">
          <path
             d="m 487.103,230.272 0.006,-0.005 -34.5,-36.674 c -0.455,-29.642 -7.493,-57.714 -19.727,-82.812 0.602,-2.901 0.921,-5.905 0.921,-8.982 0,-2.016 -0.79,-3.844 -2.071,-5.204 l 0.006,-0.005 -36.524,-38.825 c -0.348,-0.369 -0.729,-0.697 -1.135,-0.986 C 358.546,21.694 309.762,0 256.003,0 256.002,0 256.001,0 256.001,0 256,0 256,0 256,0 h -0.001 c -53.762,0.001 -102.548,21.696 -138.082,56.781 -0.405,0.288 -0.786,0.615 -1.132,0.983 l -36.523,38.824 0.006,0.005 c -1.28,1.36 -2.071,3.188 -2.071,5.204 0,3.075 0.318,6.078 0.92,8.978 -12.236,25.1 -19.275,53.175 -19.73,82.82 l -34.496,36.67 0.006,0.005 c -1.28,1.36 -2.071,3.188 -2.071,5.204 0,24.33 19.794,44.125 44.125,44.125 3.495,0 6.892,-0.421 10.155,-1.193 8.763,19.172 20.483,36.682 34.708,51.997 l -31.552,33.54 0.006,0.005 c -1.28,1.36 -2.071,3.188 -2.071,5.204 0,24.33 19.794,44.125 44.125,44.125 23.466,0 42.707,-18.416 44.044,-41.553 6.796,3.489 13.77,6.57 20.896,9.228 l -30.709,93.192 h -28.57 c -4.198,0 -7.602,3.404 -7.602,7.602 v 22.652 c 0,4.198 3.404,7.602 7.602,7.602 h 154.515 c 4.198,0 7.602,-3.404 7.602,-7.602 0,-4.198 -3.404,-7.602 -7.602,-7.602 H 135.584 v -7.449 h 240.831 v 7.449 h -58.442 c -4.198,0 -7.602,3.404 -7.602,7.602 0,4.198 3.404,7.602 7.602,7.602 h 66.044 c 4.198,0 7.602,-3.404 7.602,-7.602 v -22.652 c 0,-4.198 -3.404,-7.602 -7.602,-7.602 h -28.57 l -30.709,-93.19 c 7.125,-2.659 14.1,-5.74 20.896,-9.228 1.338,23.137 20.578,41.552 44.044,41.552 24.33,0 44.125,-19.794 44.125,-44.125 0,-2.016 -0.79,-3.844 -2.071,-5.204 l 0.006,-0.005 -31.551,-33.539 c 14.225,-15.314 25.947,-32.825 34.713,-51.997 3.261,0.771 6.656,1.191 10.149,1.191 24.33,0 44.125,-19.794 44.125,-44.125 0,-2.014 -0.791,-3.842 -2.071,-5.202 z m -35.313,-15.361 12.193,12.962 h -13.815 c 0.684,-4.295 1.222,-8.619 1.622,-12.962 z m -27.428,-85.888 c 7.53,18.681 12.033,38.892 12.91,60.025 h -76.71 c -1.67,-23.2 -10.919,-44.334 -25.283,-60.928 l 12.503,-12.503 c 5.815,17.58 22.392,30.304 41.895,30.304 14.062,0.001 26.599,-6.619 34.685,-16.898 z m -187.298,287.898 18.935,-20.128 18.935,20.128 z m 46.843,15.204 c -3.347,12.271 -14.59,21.32 -27.908,21.32 -13.317,0 -24.561,-9.048 -27.908,-21.32 z m 13.06,-235.476 c 0,15.407 -8.552,28.847 -21.152,35.842 l -4.167,-12.644 c 7.442,-5.036 12.342,-13.555 12.342,-23.198 0,-15.435 -12.556,-27.991 -27.99,-27.991 -15.435,0 -27.991,12.556 -27.991,27.991 0,9.642 4.901,18.161 12.342,23.197 l -4.167,12.644 c -12.602,-6.995 -21.152,-20.436 -21.152,-35.841 0,-22.59 18.378,-40.968 40.968,-40.968 22.59,0 40.967,18.379 40.967,40.968 z m -33.362,-55.641 v -33.669 c 19.013,1.604 36.352,9.169 50.143,20.814 l -23.792,23.791 c -7.529,-5.732 -16.541,-9.601 -26.351,-10.936 z M 256,189.049 c -3.282,0 -6.193,2.106 -7.22,5.223 l -3.212,9.748 c -1.479,-2.085 -2.356,-4.624 -2.356,-7.369 0,-7.051 5.736,-12.787 12.787,-12.787 7.05,0 12.786,5.736 12.786,12.787 0,2.745 -0.878,5.284 -2.355,7.37 l -3.212,-9.749 c -1.025,-3.117 -3.936,-5.223 -7.218,-5.223 z m 5.376,48.205 c -1.762,0.232 -3.553,0.364 -5.376,0.364 -1.823,0 -3.615,-0.132 -5.377,-0.364 l 4.167,-12.643 c 0.401,0.017 0.805,0.03 1.21,0.03 0.405,0 0.808,-0.013 1.209,-0.03 z m -12.978,15.039 v 33.669 c -4.479,-0.378 -8.865,-1.086 -13.134,-2.1 l 10.54,-31.984 c 0.859,0.157 1.722,0.296 2.594,0.415 z m 15.204,0 c 0.871,-0.119 1.735,-0.257 2.593,-0.416 l 10.54,31.984 c -4.269,1.016 -8.655,1.723 -13.133,2.1 z M 248.401,141.007 c -9.813,1.334 -18.827,5.203 -26.358,10.936 l -23.791,-23.791 c 13.792,-11.646 31.134,-19.21 50.149,-20.814 z m -37.108,21.687 c -5.733,7.529 -9.602,16.543 -10.935,26.355 h -33.669 c 1.604,-19.014 9.169,-36.354 20.814,-50.146 z m -10.936,41.558 c 1.334,9.811 5.204,18.825 10.935,26.355 l -23.791,23.791 c -11.645,-13.792 -19.209,-31.132 -20.814,-50.146 z m 21.686,37.105 c 2.901,2.209 6.02,4.142 9.322,5.761 l -10.537,31.976 c -8.229,-3.524 -15.826,-8.247 -22.575,-13.946 z m 8.448,56.99 c 5.795,1.454 11.778,2.426 17.907,2.867 v 76.719 c -14.301,-0.59 -28.355,-2.84 -41.932,-6.682 z m 33.11,2.867 h 10e-4 c 6.128,-0.441 12.112,-1.413 17.906,-2.866 l 24.025,72.906 c -13.577,3.841 -27.631,6.091 -41.932,6.68 z m 17.033,-54.095 c 3.302,-1.619 6.421,-3.553 9.322,-5.761 l 23.791,23.791 c -6.749,5.698 -14.346,10.422 -22.575,13.947 z m 20.072,-16.512 c 5.733,-7.529 9.602,-16.543 10.935,-26.355 h 33.669 c -1.604,19.014 -9.169,36.354 -20.814,50.146 z m 10.936,-41.558 c -1.334,-9.811 -5.204,-18.825 -10.936,-26.355 l 23.791,-23.791 c 11.645,13.792 19.209,31.132 20.814,50.146 z M 416.603,112.3 c -4.215,10.764 -14.686,18.418 -26.926,18.418 -13.317,0 -24.561,-9.048 -27.908,-21.32 h 53.275 c 0.529,0.961 1.047,1.93 1.559,2.902 z M 405.666,94.195 h -34.923 l 18.92,-20.112 c 5.792,6.31 11.14,13.031 16.003,20.112 z M 378.747,63.153 324.529,117.37 C 307.936,103.007 286.803,93.758 263.604,92.087 v -2.206 c 20.718,-3.616 36.52,-21.719 36.52,-43.456 0,-2.016 -0.79,-3.844 -2.071,-5.204 l 0.006,-0.005 -23.593,-25.08 c 40.009,4.064 76.211,21.186 104.281,47.017 z m -115.142,-36.372 11.33,12.043 h -11.33 z m 20.302,27.247 c -3.347,12.271 -14.59,21.32 -27.908,21.32 -13.317,0 -24.561,-9.048 -27.908,-21.32 z M 248.401,38.824 h -11.336 l 11.336,-12.05 z m -10.868,-22.686 -23.593,25.079 0.006,0.005 c -1.28,1.36 -2.071,3.188 -2.071,5.204 0,21.739 15.806,39.844 36.526,43.457 v 2.205 c -23.201,1.67 -44.336,10.919 -60.931,25.284 L 133.252,63.154 c 28.07,-25.831 64.272,-42.953 104.281,-47.016 z m -115.198,57.943 18.921,20.113 h -34.925 c 4.864,-7.08 10.213,-13.802 16.004,-20.113 z m -25.383,35.318 h 53.277 c -3.347,12.271 -14.59,21.32 -27.908,21.32 -12.241,0 -22.713,-7.655 -26.927,-18.421 0.512,-0.972 1.029,-1.939 1.558,-2.899 z m -9.317,19.622 c 8.085,10.28 20.623,16.9 34.687,16.9 19.503,0 36.08,-12.724 41.895,-30.304 l 12.503,12.503 c -14.363,16.594 -23.612,37.728 -25.283,60.928 H 74.724 c 0.875,-21.134 5.381,-41.345 12.911,-60.027 z m -27.43,85.894 c 0.401,4.341 0.938,8.665 1.623,12.958 H 48.016 Z m 6.746,49.481 c -13.317,0 -24.562,-9.048 -27.908,-21.32 h 55.816 c -3.347,12.272 -14.59,21.32 -27.908,21.32 z m 8.752,-47.347 10.182,10.824 h -8.642 c -0.621,-3.586 -1.134,-7.197 -1.54,-10.824 z m 15.372,55.344 c 12.032,-7.889 20.001,-21.487 20.001,-36.919 0,-2.016 -0.79,-3.844 -2.071,-5.204 l 0.006,-0.005 -24.472,-26.013 h 66.897 c 1.67,23.2 10.919,44.334 25.283,60.928 l -54.285,54.285 C 109.626,305.556 99.033,289.718 91.075,272.393 Z m 31.247,69.03 18.935,20.128 h -37.869 z m 0,56.651 c -13.317,0 -24.561,-9.048 -27.908,-21.32 h 55.815 c -3.346,12.272 -14.59,21.32 -27.907,21.32 z m 31.738,-51.299 c -7.398,-5.033 -14.372,-10.568 -20.885,-16.549 l 54.294,-54.294 c 8.457,7.321 18.097,13.308 28.585,17.646 l -24.029,72.919 C 178.724,361.484 165.987,354.89 154.06,346.775 Z M 339.44,474.144 H 172.559 l 29.142,-88.434 c 12.156,3.483 24.668,5.78 37.394,6.863 l -25.156,26.741 0.006,0.005 c -1.28,1.36 -2.071,3.188 -2.071,5.204 0,24.33 19.794,44.125 44.125,44.125 24.33,0 44.125,-19.794 44.125,-44.125 0,-2.016 -0.79,-3.844 -2.071,-5.204 l 0.006,-0.005 -25.156,-26.74 c 12.726,-1.082 25.237,-3.38 37.393,-6.863 z m -19.466,-107.646 -24.03,-72.92 c 10.489,-4.338 20.128,-10.325 28.586,-17.646 l 54.295,54.295 c -6.513,5.981 -13.486,11.515 -20.884,16.549 -11.927,8.116 -24.664,14.71 -37.967,19.722 z m 69.704,31.576 c -13.317,0 -24.561,-9.048 -27.908,-21.32 h 55.815 c -3.347,12.272 -14.591,21.32 -27.907,21.32 z m 18.934,-36.523 h -37.869 l 18.935,-20.128 z M 389.566,319.467 335.28,265.181 c 14.363,-16.594 23.612,-37.728 25.283,-60.928 h 66.897 l -24.472,26.013 0.006,0.005 c -1.28,1.36 -2.071,3.188 -2.071,5.204 0,15.433 7.971,29.032 20.005,36.921 -7.961,17.324 -18.555,33.161 -31.362,47.071 z m 46.726,-102.413 c -0.406,3.627 -0.92,7.235 -1.541,10.819 h -8.638 z m 8.757,47.342 c -13.317,0 -24.561,-9.048 -27.908,-21.32 h 55.816 c -3.347,12.272 -14.591,21.32 -27.908,21.32 z"
             id="path2190"
             style="fill:url(#linearGradient5318);fill-opacity:1;stroke:none" />
        </g>
      </g>
      <g
         id="g2196"
         style="fill:url(#linearGradient157);fill-opacity:1;stroke:none" />
      <g
         id="g2198"
         style="fill:url(#linearGradient159);fill-opacity:1;stroke:none" />
      <g
         id="g2200"
         style="fill:url(#linearGradient161);fill-opacity:1;stroke:none" />
      <g
         id="g2202"
         style="fill:url(#linearGradient163);fill-opacity:1;stroke:none" />
      <g
         id="g2204"
         style="fill:url(#linearGradient165);fill-opacity:1;stroke:none" />
      <g
         id="g2206"
         style="fill:url(#linearGradient167);fill-opacity:1;stroke:none" />
      <g
         id="g2208"
         style="fill:url(#linearGradient169);fill-opacity:1;stroke:none" />
      <g
         id="g2210"
         style="fill:url(#linearGradient171);fill-opacity:1;stroke:none" />
      <g
         id="g2212"
         style="fill:url(#linearGradient173);fill-opacity:1;stroke:none" />
      <g
         id="g2214"
         style="fill:url(#linearGradient175);fill-opacity:1;stroke:none" />
      <g
         id="g2216"
         style="fill:url(#linearGradient177);fill-opacity:1;stroke:none" />
      <g
         id="g2218"
         style="fill:url(#linearGradient179);fill-opacity:1;stroke:none" />
      <g
         id="g2220"
         style="fill:url(#linearGradient181);fill-opacity:1;stroke:none" />
      <g
         id="g2222"
         style="fill:url(#linearGradient183);fill-opacity:1;stroke:none" />
      <g
         id="g2224"
         style="fill:url(#linearGradient185);fill-opacity:1;stroke:none" />
    </g>
  </g>
</svg>
