<?xml version="1.0" encoding="UTF-8" standalone="no"?>
<svg
   xmlns:dc="http://purl.org/dc/elements/1.1/"
   xmlns:cc="http://creativecommons.org/ns#"
   xmlns:rdf="http://www.w3.org/1999/02/22-rdf-syntax-ns#"
   xmlns:svg="http://www.w3.org/2000/svg"
   xmlns="http://www.w3.org/2000/svg"
   xmlns:xlink="http://www.w3.org/1999/xlink"
   xmlns:sodipodi="http://sodipodi.sourceforge.net/DTD/sodipodi-0.dtd"
   xmlns:inkscape="http://www.inkscape.org/namespaces/inkscape"
   width="300"
   height="300"
   viewBox="0 0 79.374998 79.375002"
   version="1.1"
   id="svg8"
   inkscape:export-filename="C:\Users\Juan\OneDrive - Knights - University of Central Florida\Downloads\swamphacks_images\Icons\library.png"
   inkscape:export-xdpi="96"
   inkscape:export-ydpi="96"
   inkscape:version="1.0.1 (3bc2e813f5, 2020-09-07)"
   sodipodi:docname="library.svg">
  <defs
     id="defs2">
    <linearGradient
       id="linear-gradient-1"
       x1="256"
       y1="496"
       x2="256"
       y2="16"
       gradientUnits="userSpaceOnUse"
       gradientTransform="matrix(0.13780527,0,0,0.13780527,4.4084079,4.4090048)">
      <stop
         offset="0"
         stop-color="#12c2e9"
         id="stop4041" />
      <stop
         offset="0.5"
         stop-color="#c471ed"
         id="stop4043" />
      <stop
         offset="1"
         stop-color="#f64f59"
         id="stop4045" />
    </linearGradient>
    <linearGradient
       id="linear-gradient"
       x1="256"
       y1="496"
       x2="256"
       y2="16"
       gradientUnits="userSpaceOnUse"
       gradientTransform="matrix(0.11815586,0,0,0.11815586,-40.355523,-59.649114)"
       spreadMethod="pad">
      <stop
         offset="0"
         stop-color="#12c2e9"
         id="stop3722" />
      <stop
         offset="0.5"
         stop-color="#c471ed"
         id="stop3724" />
      <stop
         offset="1"
         stop-color="#f64f59"
         id="stop3726" />
    </linearGradient>
    <linearGradient
       id="linear-gradient-1-7"
       x1="256"
       y1="496"
       x2="256"
       y2="16"
       gradientUnits="userSpaceOnUse"
       gradientTransform="matrix(0.13780527,0,0,0.13780527,4.4084086,4.4090048)">
      <stop
         offset="0"
         stop-color="#12c2e9"
         id="stop4041-9" />
      <stop
         offset="0.5"
         stop-color="#c471ed"
         id="stop4043-5" />
      <stop
         offset="1"
         stop-color="#f64f59"
         id="stop4045-7" />
    </linearGradient>
    <linearGradient
       id="linear-gradient-8"
       x1="256"
       y1="480"
       x2="256"
       y2="32"
       gradientUnits="userSpaceOnUse"
       gradientTransform="matrix(0.14764692,0,0,0.14764692,1.8898422,1.8898985)">
      <stop
         offset="0"
         stop-color="#12c0e7"
         id="stop7316" />
      <stop
         offset="0.5"
         stop-color="#c271eb"
         id="stop7318" />
      <stop
         offset="1"
         stop-color="#f44f5a"
         id="stop7320" />
    </linearGradient>
    <linearGradient
       inkscape:collect="always"
       xlink:href="#linear-gradient"
       id="linearGradient5408"
       x1="256.00101"
       y1="508.78113"
       x2="256.00101"
       y2="17.948"
       gradientUnits="userSpaceOnUse" />
    <linearGradient
       inkscape:collect="always"
       xlink:href="#linear-gradient"
       id="linearGradient1545"
       gradientUnits="userSpaceOnUse"
       x1="256.00101"
       y1="508.78113"
       x2="256.00101"
       y2="17.948" />
    <linearGradient
       inkscape:collect="always"
       xlink:href="#linear-gradient"
       id="linearGradient1547"
       gradientUnits="userSpaceOnUse"
       x1="256.00101"
       y1="508.78113"
       x2="256.00101"
       y2="17.948" />
    <linearGradient
       inkscape:collect="always"
       xlink:href="#linear-gradient"
       id="linearGradient1549"
       gradientUnits="userSpaceOnUse"
       x1="256.00101"
       y1="508.78113"
       x2="256.00101"
       y2="17.948" />
    <linearGradient
       inkscape:collect="always"
       xlink:href="#linear-gradient"
       id="linearGradient1551"
       gradientUnits="userSpaceOnUse"
       x1="256.00101"
       y1="508.78113"
       x2="256.00101"
       y2="17.948" />
    <linearGradient
       inkscape:collect="always"
       xlink:href="#linear-gradient"
       id="linearGradient1553"
       gradientUnits="userSpaceOnUse"
       x1="256.00101"
       y1="508.78113"
       x2="256.00101"
       y2="17.948" />
    <linearGradient
       inkscape:collect="always"
       xlink:href="#linear-gradient"
       id="linearGradient1555"
       gradientUnits="userSpaceOnUse"
       x1="256.00101"
       y1="508.78113"
       x2="256.00101"
       y2="17.948" />
    <linearGradient
       inkscape:collect="always"
       xlink:href="#linear-gradient"
       id="linearGradient1557"
       gradientUnits="userSpaceOnUse"
       x1="256.00101"
       y1="508.78113"
       x2="256.00101"
       y2="17.948" />
    <linearGradient
       inkscape:collect="always"
       xlink:href="#linear-gradient"
       id="linearGradient1559"
       gradientUnits="userSpaceOnUse"
       x1="256.00101"
       y1="508.78113"
       x2="256.00101"
       y2="17.948" />
    <linearGradient
       inkscape:collect="always"
       xlink:href="#linear-gradient"
       id="linearGradient1561"
       gradientUnits="userSpaceOnUse"
       x1="256.00101"
       y1="508.78113"
       x2="256.00101"
       y2="17.948" />
    <linearGradient
       inkscape:collect="always"
       xlink:href="#linear-gradient"
       id="linearGradient1563"
       gradientUnits="userSpaceOnUse"
       x1="256.00101"
       y1="508.78113"
       x2="256.00101"
       y2="17.948" />
    <linearGradient
       inkscape:collect="always"
       xlink:href="#linear-gradient"
       id="linearGradient1565"
       gradientUnits="userSpaceOnUse"
       x1="256.00101"
       y1="508.78113"
       x2="256.00101"
       y2="17.948" />
    <linearGradient
       inkscape:collect="always"
       xlink:href="#linear-gradient"
       id="linearGradient1567"
       gradientUnits="userSpaceOnUse"
       x1="256.00101"
       y1="508.78113"
       x2="256.00101"
       y2="17.948" />
    <linearGradient
       inkscape:collect="always"
       xlink:href="#linear-gradient"
       id="linearGradient1569"
       gradientUnits="userSpaceOnUse"
       x1="256.00101"
       y1="508.78113"
       x2="256.00101"
       y2="17.948" />
    <linearGradient
       inkscape:collect="always"
       xlink:href="#linear-gradient"
       id="linearGradient1571"
       gradientUnits="userSpaceOnUse"
       x1="256.00101"
       y1="508.78113"
       x2="256.00101"
       y2="17.948" />
    <linearGradient
       inkscape:collect="always"
       xlink:href="#linear-gradient"
       id="linearGradient1573"
       gradientUnits="userSpaceOnUse"
       x1="256.00101"
       y1="508.78113"
       x2="256.00101"
       y2="17.948" />
    <linearGradient
       inkscape:collect="always"
       xlink:href="#linear-gradient"
       id="linearGradient1575"
       gradientUnits="userSpaceOnUse"
       x1="256.00101"
       y1="508.78113"
       x2="256.00101"
       y2="17.948" />
    <linearGradient
       inkscape:collect="always"
       xlink:href="#linear-gradient"
       id="linearGradient1577"
       gradientUnits="userSpaceOnUse"
       x1="256.00101"
       y1="508.78113"
       x2="256.00101"
       y2="17.948" />
    <linearGradient
       inkscape:collect="always"
       xlink:href="#linear-gradient"
       id="linearGradient1579"
       gradientUnits="userSpaceOnUse"
       x1="256.00101"
       y1="508.78113"
       x2="256.00101"
       y2="17.948" />
    <linearGradient
       inkscape:collect="always"
       xlink:href="#linear-gradient"
       id="linearGradient1581"
       gradientUnits="userSpaceOnUse"
       x1="256.00101"
       y1="508.78113"
       x2="256.00101"
       y2="17.948" />
    <linearGradient
       inkscape:collect="always"
       xlink:href="#linear-gradient"
       id="linearGradient1583"
       gradientUnits="userSpaceOnUse"
       x1="256.00101"
       y1="508.78113"
       x2="256.00101"
       y2="17.948" />
    <linearGradient
       inkscape:collect="always"
       xlink:href="#linear-gradient"
       id="linearGradient1585"
       gradientUnits="userSpaceOnUse"
       x1="256.00101"
       y1="508.78113"
       x2="256.00101"
       y2="17.948" />
    <linearGradient
       inkscape:collect="always"
       xlink:href="#linear-gradient"
       id="linearGradient1587"
       gradientUnits="userSpaceOnUse"
       x1="256.00101"
       y1="508.78113"
       x2="256.00101"
       y2="17.948" />
    <linearGradient
       inkscape:collect="always"
       xlink:href="#linear-gradient"
       id="linearGradient1589"
       gradientUnits="userSpaceOnUse"
       x1="256.00101"
       y1="508.78113"
       x2="256.00101"
       y2="17.948" />
    <linearGradient
       inkscape:collect="always"
       xlink:href="#linear-gradient"
       id="linearGradient1591"
       gradientUnits="userSpaceOnUse"
       x1="256.00101"
       y1="508.78113"
       x2="256.00101"
       y2="17.948" />
    <linearGradient
       inkscape:collect="always"
       xlink:href="#linear-gradient"
       id="linearGradient1593"
       gradientUnits="userSpaceOnUse"
       x1="256.00101"
       y1="508.78113"
       x2="256.00101"
       y2="17.948" />
    <linearGradient
       inkscape:collect="always"
       xlink:href="#linear-gradient"
       id="linearGradient1595"
       gradientUnits="userSpaceOnUse"
       x1="256.00101"
       y1="508.78113"
       x2="256.00101"
       y2="17.948" />
    <linearGradient
       inkscape:collect="always"
       xlink:href="#linear-gradient"
       id="linearGradient1597"
       gradientUnits="userSpaceOnUse"
       x1="256.00101"
       y1="508.78113"
       x2="256.00101"
       y2="17.948" />
    <linearGradient
       inkscape:collect="always"
       xlink:href="#linear-gradient"
       id="linearGradient1599"
       gradientUnits="userSpaceOnUse"
       x1="256.00101"
       y1="508.78113"
       x2="256.00101"
       y2="17.948" />
    <linearGradient
       inkscape:collect="always"
       xlink:href="#linear-gradient"
       id="linearGradient1601"
       gradientUnits="userSpaceOnUse"
       x1="256.00101"
       y1="508.78113"
       x2="256.00101"
       y2="17.948" />
    <linearGradient
       inkscape:collect="always"
       xlink:href="#linear-gradient"
       id="linearGradient1603"
       gradientUnits="userSpaceOnUse"
       x1="256.00101"
       y1="508.78113"
       x2="256.00101"
       y2="17.948" />
  </defs>
  <sodipodi:namedview
     id="base"
     pagecolor="#ffffff"
     bordercolor="#666666"
     borderopacity="1.0"
     inkscape:pageopacity="0.0"
     inkscape:pageshadow="2"
     inkscape:zoom="0.35"
     inkscape:cx="400"
     inkscape:cy="560"
     inkscape:document-units="mm"
     inkscape:current-layer="layer1"
     inkscape:document-rotation="0"
     showgrid="false"
     units="px"
     inkscape:window-width="1498"
     inkscape:window-height="1041"
     inkscape:window-x="-8"
     inkscape:window-y="0"
     inkscape:window-maximized="0" />
  <metadata
     id="metadata5">
    <rdf:RDF>
      <cc:Work
         rdf:about="">
        <dc:format>image/svg+xml</dc:format>
        <dc:type
           rdf:resource="http://purl.org/dc/dcmitype/StillImage" />
        <dc:title></dc:title>
      </cc:Work>
    </rdf:RDF>
  </metadata>
  <g
     inkscape:label="Layer 1"
     inkscape:groupmode="layer"
     id="layer1">
    <g
       id="g4436"
       transform="matrix(0.12919089,0,0,0.12919089,6.6145479,6.6145514)"
       style="fill:url(#linearGradient5408);fill-opacity:1">
      <g
         id="g4343"
         style="fill:url(#linearGradient1549);fill-opacity:1">
        <g
           id="g4341"
           style="fill:url(#linearGradient1547);fill-opacity:1">
          <path
             d="m 504.397,461.581 h -19.93 v -51.61 -66.912 -34.977 -66.912 -52.183 h 19.706 c 2.164,0 4.292,-0.812 5.767,-2.395 2.345,-2.516 2.689,-6.176 1.033,-9.027 L 460.629,90.868 c -1.361,-2.343 -3.866,-3.786 -6.576,-3.786 H 353.507 L 278.172,17.7 261.155,2.014 c -2.912,-2.685 -7.396,-2.685 -10.308,0 L 233.834,17.699 158.495,87.083 H 119.64 c -4.199,0 -7.604,3.405 -7.604,7.604 0,4.199 3.405,7.604 7.604,7.604 h 22.342 l -55.26,50.893 c -1.871,1.723 -2.906,4.242 -2.549,6.76 0.549,3.874 3.818,6.585 7.54,6.585 h 23.882 v 7.251 H 35.139 20.813 l 41.514,-71.489 h 21.826 c 4.199,0 7.604,-3.405 7.604,-7.604 0,-4.199 -3.405,-7.604 -7.604,-7.604 H 57.95 c -2.71,0 -5.215,1.442 -6.576,3.786 L 1.138,177.377 c -1.087,1.871 -1.451,4.119 -0.82,6.19 1.002,3.289 3.993,5.421 7.287,5.421 h 19.93 v 52.183 66.912 34.977 66.912 51.61 H 7.604 C 3.405,461.582 0,464.987 0,469.186 v 35.211 c 0,4.199 3.405,7.604 7.604,7.604 h 496.792 c 4.199,0 7.604,-3.405 7.604,-7.604 v -35.211 c 0,-4.201 -3.403,-7.605 -7.603,-7.605 z m -54.723,-359.29 41.514,71.489 h -14.325 -80.459 v -7.251 h 23.886 c 3.133,0 5.944,-1.921 7.084,-4.839 1.139,-2.918 0.372,-6.236 -1.932,-8.358 l -55.421,-51.041 z m -60.87,194.136 c -4.199,0 -7.604,3.405 -7.604,7.604 v 25.241 h -0.005 v 132.309 h -44.597 v -98.602 h 10.88 c 2.986,0 5.837,-1.594 7.133,-4.284 1.628,-3.378 0.565,-7.352 -2.392,-9.486 L 260.45,282.97 c -2.657,-1.919 -6.243,-1.917 -8.901,0 l -91.535,66.07 c -2.421,1.748 -3.799,4.708 -3.274,7.648 0.659,3.691 3.845,6.29 7.491,6.29 h 11.171 V 461.58 H 130.801 V 166.528 h 0.612 c 1.91,0 3.75,-0.719 5.154,-2.014 L 256,54.392 375.432,164.515 c 1.404,1.295 3.244,2.014 5.154,2.014 h 0.608 v 87.717 h 0.005 v 14.299 c 0,4.199 3.405,7.604 7.604,7.604 4.199,0 7.604,-3.405 7.604,-7.604 v -79.557 h 72.85 v 44.58 h -45.622 c -4.199,0 -7.604,3.405 -7.604,7.604 v 66.912 c 0,4.199 3.405,7.604 7.604,7.604 h 45.622 v 19.769 h -45.622 c -4.199,0 -7.604,3.405 -7.604,7.604 v 66.912 c 0,4.199 3.405,7.604 7.604,7.604 h 45.622 v 44.006 h -72.85 V 304.031 c 0.001,-4.2 -3.403,-7.604 -7.603,-7.604 z M 321.391,461.58 h -57.786 v -98.602 h 57.786 z M 187.76,347.77 l 68.242,-49.256 68.242,49.256 z m 60.637,15.208 V 461.58 H 190.61 v -98.602 z m 182.844,39.389 v -51.704 h 38.018 v 51.704 z m 0,-101.889 v -51.704 h 38.018 v 51.704 z M 111.194,151.32 244.139,28.883 256.001,17.948 267.865,28.887 400.808,151.322 h -17.25 L 261.155,38.459 c -2.912,-2.685 -7.397,-2.685 -10.309,0 L 128.444,151.32 Z m -68.451,97.455 h 38.018 v 51.704 H 42.743 Z m 0,101.888 h 38.018 v 51.704 H 42.743 Z m 0,66.912 h 45.622 c 4.199,0 7.604,-3.405 7.604,-7.604 v -66.912 c 0,-4.199 -3.405,-7.604 -7.604,-7.604 H 42.743 v -19.769 h 45.622 c 4.199,0 7.604,-3.405 7.604,-7.604 V 241.17 c 0,-4.199 -3.405,-7.604 -7.604,-7.604 H 42.743 v -44.579 h 72.85 v 272.594 h -72.85 z m 454.05,79.217 H 15.208 v -20.004 h 19.93 88.058 59.81 145.989 59.81 88.058 19.93 z"
             id="path4339"
             style="fill:url(#linearGradient1545);fill-opacity:1" />
        </g>
      </g>
      <g
         id="g4349"
         style="fill:url(#linearGradient1555);fill-opacity:1">
        <g
           id="g4347"
           style="fill:url(#linearGradient1553);fill-opacity:1">
          <path
             d="m 255.999,107.741 c -33.264,0 -60.325,27.061 -60.325,60.325 0,33.264 27.061,60.325 60.325,60.325 33.264,0 60.325,-27.061 60.325,-60.325 0,-33.264 -27.061,-60.325 -60.325,-60.325 z m 0,105.442 c -24.878,0 -45.117,-20.239 -45.117,-45.117 0,-24.878 20.239,-45.117 45.117,-45.117 24.878,0 45.117,20.239 45.117,45.117 0,24.878 -20.238,45.117 -45.117,45.117 z"
             id="path4345"
             style="fill:url(#linearGradient1551);fill-opacity:1" />
        </g>
      </g>
      <g
         id="g4355"
         style="fill:url(#linearGradient1561);fill-opacity:1">
        <g
           id="g4353"
           style="fill:url(#linearGradient1559);fill-opacity:1">
          <path
             d="m 276.933,160.462 h -13.329 v -23.716 c 0,-4.199 -3.405,-7.604 -7.604,-7.604 -4.199,0 -7.604,3.405 -7.604,7.604 v 31.32 c 0,4.199 3.404,7.604 7.604,7.604 h 20.933 c 4.199,0 7.604,-3.405 7.604,-7.604 0,-4.199 -3.405,-7.604 -7.604,-7.604 z"
             id="path4351"
             style="fill:url(#linearGradient1557);fill-opacity:1" />
        </g>
      </g>
      <g
         id="g4361"
         style="fill:url(#linearGradient1567);fill-opacity:1">
        <g
           id="g4359"
           style="fill:url(#linearGradient1565);fill-opacity:1">
          <path
             d="m 203.362,216.839 h -53.226 c -4.199,0 -7.604,3.405 -7.604,7.604 v 66.912 c 0,4.199 3.405,7.604 7.604,7.604 h 53.226 c 4.199,0 7.604,-3.405 7.604,-7.604 v -66.912 c 0,-4.2 -3.405,-7.604 -7.604,-7.604 z m -7.604,66.912 H 157.74 v -51.704 h 38.018 z"
             id="path4357"
             style="fill:url(#linearGradient1563);fill-opacity:1" />
        </g>
      </g>
      <g
         id="g4367"
         style="fill:url(#linearGradient1573);fill-opacity:1">
        <g
           id="g4365"
           style="fill:url(#linearGradient1571);fill-opacity:1">
          <path
             d="m 361.862,216.84 h -53.226 c -4.2,0 -7.604,3.405 -7.604,7.604 v 66.912 c 0,4.199 3.405,7.604 7.604,7.604 h 53.226 c 4.199,0 7.604,-3.405 7.604,-7.604 v -66.912 c 0,-4.2 -3.405,-7.604 -7.604,-7.604 z m -7.604,66.911 H 316.24 v -51.704 h 38.018 z"
             id="path4363"
             style="fill:url(#linearGradient1569);fill-opacity:1" />
        </g>
      </g>
      <g
         id="g4369"
         style="fill:url(#linearGradient1575);fill-opacity:1" />
      <g
         id="g4371"
         style="fill:url(#linearGradient1577);fill-opacity:1" />
      <g
         id="g4373"
         style="fill:url(#linearGradient1579);fill-opacity:1" />
      <g
         id="g4375"
         style="fill:url(#linearGradient1581);fill-opacity:1" />
      <g
         id="g4377"
         style="fill:url(#linearGradient1583);fill-opacity:1" />
      <g
         id="g4379"
         style="fill:url(#linearGradient1585);fill-opacity:1" />
      <g
         id="g4381"
         style="fill:url(#linearGradient1587);fill-opacity:1" />
      <g
         id="g4383"
         style="fill:url(#linearGradient1589);fill-opacity:1" />
      <g
         id="g4385"
         style="fill:url(#linearGradient1591);fill-opacity:1" />
      <g
         id="g4387"
         style="fill:url(#linearGradient1593);fill-opacity:1" />
      <g
         id="g4389"
         style="fill:url(#linearGradient1595);fill-opacity:1" />
      <g
         id="g4391"
         style="fill:url(#linearGradient1597);fill-opacity:1" />
      <g
         id="g4393"
         style="fill:url(#linearGradient1599);fill-opacity:1" />
      <g
         id="g4395"
         style="fill:url(#linearGradient1601);fill-opacity:1" />
      <g
         id="g4397"
         style="fill:url(#linearGradient1603);fill-opacity:1" />
    </g>
  </g>
</svg>
