<?xml version="1.0" encoding="UTF-8" standalone="no"?>
<svg
   xmlns:dc="http://purl.org/dc/elements/1.1/"
   xmlns:cc="http://creativecommons.org/ns#"
   xmlns:rdf="http://www.w3.org/1999/02/22-rdf-syntax-ns#"
   xmlns:svg="http://www.w3.org/2000/svg"
   xmlns="http://www.w3.org/2000/svg"
   xmlns:xlink="http://www.w3.org/1999/xlink"
   xmlns:sodipodi="http://sodipodi.sourceforge.net/DTD/sodipodi-0.dtd"
   xmlns:inkscape="http://www.inkscape.org/namespaces/inkscape"
   width="300"
   height="300"
   viewBox="0 0 79.374998 79.375002"
   version="1.1"
   id="svg8"
   inkscape:export-filename="C:\Users\Juan\OneDrive - Knights - University of Central Florida\Downloads\swamphacks_images\Icons\mountains.png"
   inkscape:export-xdpi="96"
   inkscape:export-ydpi="96"
   inkscape:version="1.0.1 (3bc2e813f5, 2020-09-07)"
   sodipodi:docname="mountains.svg">
  <defs
     id="defs2">
    <linearGradient
       id="linear-gradient-1"
       x1="256"
       y1="496"
       x2="256"
       y2="16"
       gradientUnits="userSpaceOnUse"
       gradientTransform="matrix(0.13780527,0,0,0.13780527,4.4084079,4.4090048)">
      <stop
         offset="0"
         stop-color="#12c2e9"
         id="stop4041" />
      <stop
         offset="0.5"
         stop-color="#c471ed"
         id="stop4043" />
      <stop
         offset="1"
         stop-color="#f64f59"
         id="stop4045" />
    </linearGradient>
    <linearGradient
       id="linear-gradient"
       x1="256"
       y1="496"
       x2="256"
       y2="16"
       gradientUnits="userSpaceOnUse"
       gradientTransform="matrix(0.11815586,0,0,0.11815586,-40.355523,-59.649114)"
       spreadMethod="pad">
      <stop
         offset="0"
         stop-color="#12c2e9"
         id="stop3722" />
      <stop
         offset="0.5"
         stop-color="#c471ed"
         id="stop3724" />
      <stop
         offset="1"
         stop-color="#f64f59"
         id="stop3726" />
    </linearGradient>
    <linearGradient
       id="linear-gradient-1-7"
       x1="256"
       y1="496"
       x2="256"
       y2="16"
       gradientUnits="userSpaceOnUse"
       gradientTransform="matrix(0.13780527,0,0,0.13780527,4.4084086,4.4090048)">
      <stop
         offset="0"
         stop-color="#12c2e9"
         id="stop4041-9" />
      <stop
         offset="0.5"
         stop-color="#c471ed"
         id="stop4043-5" />
      <stop
         offset="1"
         stop-color="#f64f59"
         id="stop4045-7" />
    </linearGradient>
    <linearGradient
       inkscape:collect="always"
       xlink:href="#linear-gradient"
       id="linearGradient5368"
       x1="251.04976"
       y1="493.61432"
       x2="251.04976"
       y2="4.9511104"
       gradientUnits="userSpaceOnUse" />
    <linearGradient
       inkscape:collect="always"
       xlink:href="#linear-gradient"
       id="linearGradient940"
       gradientUnits="userSpaceOnUse"
       x1="251.04976"
       y1="493.61432"
       x2="251.04976"
       y2="4.9511104" />
    <linearGradient
       inkscape:collect="always"
       xlink:href="#linear-gradient"
       id="linearGradient942"
       gradientUnits="userSpaceOnUse"
       x1="251.04976"
       y1="493.61432"
       x2="251.04976"
       y2="4.9511104" />
    <linearGradient
       inkscape:collect="always"
       xlink:href="#linear-gradient"
       id="linearGradient944"
       gradientUnits="userSpaceOnUse"
       x1="251.04976"
       y1="493.61432"
       x2="251.04976"
       y2="4.9511104" />
    <linearGradient
       inkscape:collect="always"
       xlink:href="#linear-gradient"
       id="linearGradient946"
       gradientUnits="userSpaceOnUse"
       x1="251.04976"
       y1="493.61432"
       x2="251.04976"
       y2="4.9511104" />
    <linearGradient
       inkscape:collect="always"
       xlink:href="#linear-gradient"
       id="linearGradient948"
       gradientUnits="userSpaceOnUse"
       x1="251.04976"
       y1="493.61432"
       x2="251.04976"
       y2="4.9511104" />
    <linearGradient
       inkscape:collect="always"
       xlink:href="#linear-gradient"
       id="linearGradient950"
       gradientUnits="userSpaceOnUse"
       x1="251.04976"
       y1="493.61432"
       x2="251.04976"
       y2="4.9511104" />
    <linearGradient
       inkscape:collect="always"
       xlink:href="#linear-gradient"
       id="linearGradient952"
       gradientUnits="userSpaceOnUse"
       x1="251.04976"
       y1="493.61432"
       x2="251.04976"
       y2="4.9511104" />
    <linearGradient
       inkscape:collect="always"
       xlink:href="#linear-gradient"
       id="linearGradient954"
       gradientUnits="userSpaceOnUse"
       x1="251.04976"
       y1="493.61432"
       x2="251.04976"
       y2="4.9511104" />
    <linearGradient
       inkscape:collect="always"
       xlink:href="#linear-gradient"
       id="linearGradient956"
       gradientUnits="userSpaceOnUse"
       x1="251.04976"
       y1="493.61432"
       x2="251.04976"
       y2="4.9511104" />
    <linearGradient
       inkscape:collect="always"
       xlink:href="#linear-gradient"
       id="linearGradient958"
       gradientUnits="userSpaceOnUse"
       x1="251.04976"
       y1="493.61432"
       x2="251.04976"
       y2="4.9511104" />
    <linearGradient
       inkscape:collect="always"
       xlink:href="#linear-gradient"
       id="linearGradient960"
       gradientUnits="userSpaceOnUse"
       x1="251.04976"
       y1="493.61432"
       x2="251.04976"
       y2="4.9511104" />
    <linearGradient
       inkscape:collect="always"
       xlink:href="#linear-gradient"
       id="linearGradient962"
       gradientUnits="userSpaceOnUse"
       x1="251.04976"
       y1="493.61432"
       x2="251.04976"
       y2="4.9511104" />
    <linearGradient
       inkscape:collect="always"
       xlink:href="#linear-gradient"
       id="linearGradient964"
       gradientUnits="userSpaceOnUse"
       x1="251.04976"
       y1="493.61432"
       x2="251.04976"
       y2="4.9511104" />
    <linearGradient
       inkscape:collect="always"
       xlink:href="#linear-gradient"
       id="linearGradient966"
       gradientUnits="userSpaceOnUse"
       x1="251.04976"
       y1="493.61432"
       x2="251.04976"
       y2="4.9511104" />
    <linearGradient
       inkscape:collect="always"
       xlink:href="#linear-gradient"
       id="linearGradient968"
       gradientUnits="userSpaceOnUse"
       x1="251.04976"
       y1="493.61432"
       x2="251.04976"
       y2="4.9511104" />
    <linearGradient
       inkscape:collect="always"
       xlink:href="#linear-gradient"
       id="linearGradient970"
       gradientUnits="userSpaceOnUse"
       x1="251.04976"
       y1="493.61432"
       x2="251.04976"
       y2="4.9511104" />
    <linearGradient
       inkscape:collect="always"
       xlink:href="#linear-gradient"
       id="linearGradient972"
       gradientUnits="userSpaceOnUse"
       x1="251.04976"
       y1="493.61432"
       x2="251.04976"
       y2="4.9511104" />
    <linearGradient
       inkscape:collect="always"
       xlink:href="#linear-gradient"
       id="linearGradient974"
       gradientUnits="userSpaceOnUse"
       x1="251.04976"
       y1="493.61432"
       x2="251.04976"
       y2="4.9511104" />
  </defs>
  <sodipodi:namedview
     id="base"
     pagecolor="#ffffff"
     bordercolor="#666666"
     borderopacity="1.0"
     inkscape:pageopacity="0.0"
     inkscape:pageshadow="2"
     inkscape:zoom="0.35"
     inkscape:cx="400"
     inkscape:cy="560"
     inkscape:document-units="mm"
     inkscape:current-layer="layer1"
     inkscape:document-rotation="0"
     showgrid="false"
     units="px"
     inkscape:window-width="1498"
     inkscape:window-height="1033"
     inkscape:window-x="0"
     inkscape:window-y="0"
     inkscape:window-maximized="0" />
  <metadata
     id="metadata5">
    <rdf:RDF>
      <cc:Work
         rdf:about="">
        <dc:format>image/svg+xml</dc:format>
        <dc:type
           rdf:resource="http://purl.org/dc/dcmitype/StillImage" />
        <dc:title />
      </cc:Work>
    </rdf:RDF>
  </metadata>
  <g
     inkscape:label="Layer 1"
     inkscape:groupmode="layer"
     id="layer1">
    <g
       id="g5236"
       transform="matrix(0.12935266,0,0,0.12935266,6.5732145,6.5731187)"
       style="fill:url(#linearGradient5368);fill-opacity:1"
       inkscape:export-filename="C:\Users\Juan\OneDrive - Knights - University of Central Florida\Downloads\swamphacks_images\Icons\mountains.png"
       inkscape:export-xdpi="96"
       inkscape:export-ydpi="96">
      <g
         id="g5179"
         style="fill:url(#linearGradient944);fill-opacity:1">
        <g
           id="g5177"
           style="fill:url(#linearGradient942);fill-opacity:1">
          <path
             d="m 508.137,435.585 c -0.123,-0.363 -0.264,-0.721 -0.446,-1.071 l -0.027,-0.053 c -0.973,-2.244 -2.094,-4.41 -3.358,-6.481 L 367.75,164.407 c -1.338,-2.581 -4.071,-4.153 -6.937,-4.098 -2.907,0.074 -5.516,1.801 -6.72,4.448 l -34.518,75.895 -56.679,-127.313 c -1.706,-3.832 -6.195,-5.555 -10.027,-3.849 -3.832,1.706 -5.555,6.195 -3.849,10.027 l 26.669,59.905 -31.946,30.499 -45.457,-32.744 c -3.297,-2.375 -7.879,-1.734 -10.4,1.456 l -34.685,43.935 -7.816,-52.311 62.352,-143.481 25.7,57.729 c 1.706,3.832 6.195,5.555 10.027,3.849 3.832,-1.706 5.555,-6.195 3.849,-10.027 l -32.725,-73.5 c -1.224,-2.751 -3.955,-4.539 -6.972,-4.506 -3.013,0.013 -5.731,1.805 -6.932,4.568 L 14.351,433.672 C 5.802,444.748 0.633,458.645 0.421,473.783 l -0.42,30.009 c -0.017,1.233 0.198,2.474 0.739,3.583 1.318,2.703 4.001,4.306 6.852,4.306 h 496.814 c 4.194,0 7.594,-3.4 7.594,-7.594 v -48.735 c 0,-6.983 -1.379,-13.656 -3.863,-19.767 z M 361.45,185.268 l 69.421,133.992 -13.68,-6.155 c -3.099,-1.392 -6.741,-0.561 -8.925,2.035 l -15.512,18.426 -45.237,-21.89 c -1.92,-0.931 -4.146,-1.008 -6.127,-0.216 l -45.632,18.242 z M 496.811,496.492 H 15.293 l 0.316,-22.496 c 0.387,-27.492 21.793,-49.72 48.737,-50.605 0.589,-0.02 1.183,-0.029 1.777,-0.029 24.424,0 45.54,16.471 51.351,40.052 0.541,2.197 2.034,4.039 4.072,5.022 2.038,0.984 4.408,1.009 6.466,0.065 5.285,-2.422 10.963,-3.65 16.878,-3.65 15.34,0 29.301,8.38 36.436,21.872 1.594,3.014 5.008,4.599 8.332,3.869 3.331,-0.726 5.77,-3.584 5.965,-6.987 0.456,-7.997 3.686,-14.846 9.914,-20.979 8.19,-8.189 17.949,-13.283 29.007,-15.14 4.136,-0.695 6.926,-4.611 6.232,-8.748 -0.695,-4.135 -4.613,-6.926 -8.748,-6.232 -14.236,2.391 -26.762,8.911 -37.189,19.338 -4.387,4.319 -7.787,9.043 -10.186,14.139 -10.392,-10.316 -24.588,-16.322 -39.765,-16.322 -5.207,0 -10.286,0.697 -15.183,2.078 -9.941,-26.026 -35.004,-43.568 -63.584,-43.568 -0.762,0 -1.522,0.012 -2.277,0.037 -8.635,0.284 -16.83,2.252 -24.291,5.578 l 94.401,-217.232 6.817,45.618 c 0.448,2.995 2.633,5.439 5.559,6.217 0.647,0.172 1.302,0.255 1.952,0.255 2.289,0 4.499,-1.037 5.961,-2.889 l 41.062,-52.011 44.679,32.186 c 2.968,2.138 7.038,1.856 9.683,-0.669 l 32.582,-31.106 28.923,64.969 -61.482,135.181 c -1.737,3.818 -0.05,8.32 3.769,10.057 3.822,1.737 8.321,0.049 10.058,-3.769 l 23.149,-50.898 57.252,-22.888 47.535,23.003 c 3.125,1.514 6.881,0.713 9.117,-1.945 l 15.62,-18.555 25.932,11.666 33.285,64.244 c -4.798,-1.521 -9.887,-2.365 -15.162,-2.408 l -0.502,-0.002 c -13.291,0 -25.934,4.11 -36.532,11.739 -13.276,-26.927 -41.483,-44.315 -72.161,-43.313 -19.805,0.652 -38.449,8.855 -52.498,23.099 -11.742,11.904 -19.205,26.967 -21.571,43.162 -3.509,-1.28 -7.749,-2.617 -12.535,-3.702 -4.091,-0.931 -8.159,1.635 -9.087,5.725 -0.928,4.091 1.635,8.159 5.726,9.087 6.522,1.48 11.878,3.515 15.239,4.967 0.538,8.735 2.503,17.223 5.92,25.302 1.633,3.863 6.092,5.67 9.952,4.036 3.863,-1.633 5.672,-6.09 4.036,-9.953 -3.413,-8.071 -5.056,-16.656 -4.881,-25.516 0.313,-15.908 6.71,-30.981 18.014,-42.442 11.305,-11.461 26.286,-18.061 42.185,-18.584 27.655,-0.915 52.88,16.812 61.383,43.094 0.82,2.533 2.905,4.451 5.497,5.058 2.592,0.606 5.311,-0.189 7.169,-2.096 9.091,-9.334 21.216,-14.474 34.144,-14.474 l 0.399,0.002 c 20.219,0.162 36.668,16.917 36.668,37.349 v 41.142 z"
             id="path5175"
             style="fill:url(#linearGradient940);fill-opacity:1" />
        </g>
      </g>
      <g
         id="g5181"
         style="fill:url(#linearGradient946);fill-opacity:1" />
      <g
         id="g5183"
         style="fill:url(#linearGradient948);fill-opacity:1" />
      <g
         id="g5185"
         style="fill:url(#linearGradient950);fill-opacity:1" />
      <g
         id="g5187"
         style="fill:url(#linearGradient952);fill-opacity:1" />
      <g
         id="g5189"
         style="fill:url(#linearGradient954);fill-opacity:1" />
      <g
         id="g5191"
         style="fill:url(#linearGradient956);fill-opacity:1" />
      <g
         id="g5193"
         style="fill:url(#linearGradient958);fill-opacity:1" />
      <g
         id="g5195"
         style="fill:url(#linearGradient960);fill-opacity:1" />
      <g
         id="g5197"
         style="fill:url(#linearGradient962);fill-opacity:1" />
      <g
         id="g5199"
         style="fill:url(#linearGradient964);fill-opacity:1" />
      <g
         id="g5201"
         style="fill:url(#linearGradient966);fill-opacity:1" />
      <g
         id="g5203"
         style="fill:url(#linearGradient968);fill-opacity:1" />
      <g
         id="g5205"
         style="fill:url(#linearGradient970);fill-opacity:1" />
      <g
         id="g5207"
         style="fill:url(#linearGradient972);fill-opacity:1" />
      <g
         id="g5209"
         style="fill:url(#linearGradient974);fill-opacity:1" />
    </g>
  </g>
</svg>
