<?xml version="1.0" encoding="UTF-8" standalone="no"?>
<svg
   xmlns:dc="http://purl.org/dc/elements/1.1/"
   xmlns:cc="http://creativecommons.org/ns#"
   xmlns:rdf="http://www.w3.org/1999/02/22-rdf-syntax-ns#"
   xmlns:svg="http://www.w3.org/2000/svg"
   xmlns="http://www.w3.org/2000/svg"
   xmlns:xlink="http://www.w3.org/1999/xlink"
   xmlns:sodipodi="http://sodipodi.sourceforge.net/DTD/sodipodi-0.dtd"
   xmlns:inkscape="http://www.inkscape.org/namespaces/inkscape"
   width="300"
   height="300"
   viewBox="0 0 79.374998 79.375002"
   version="1.1"
   id="svg8"
   inkscape:export-filename="C:\Users\Juan\OneDrive - Knights - University of Central Florida\Downloads\swamphacks_images\Icons\point_of_interest.png"
   inkscape:export-xdpi="96"
   inkscape:export-ydpi="96"
   inkscape:version="1.0.1 (3bc2e813f5, 2020-09-07)"
   sodipodi:docname="point_of_interest.svg">
  <defs
     id="defs2">
    <linearGradient
       id="linear-gradient-1"
       x1="256"
       y1="496"
       x2="256"
       y2="16"
       gradientUnits="userSpaceOnUse"
       gradientTransform="matrix(0.13780527,0,0,0.13780527,4.4084079,4.4090048)">
      <stop
         offset="0"
         stop-color="#12c2e9"
         id="stop4041" />
      <stop
         offset="0.5"
         stop-color="#c471ed"
         id="stop4043" />
      <stop
         offset="1"
         stop-color="#f64f59"
         id="stop4045" />
    </linearGradient>
    <linearGradient
       id="linear-gradient"
       x1="256"
       y1="496"
       x2="256"
       y2="16"
       gradientUnits="userSpaceOnUse"
       gradientTransform="matrix(0.11815586,0,0,0.11815586,-40.355523,-59.649114)"
       spreadMethod="pad">
      <stop
         offset="0"
         stop-color="#12c2e9"
         id="stop3722" />
      <stop
         offset="0.5"
         stop-color="#c471ed"
         id="stop3724" />
      <stop
         offset="1"
         stop-color="#f64f59"
         id="stop3726" />
    </linearGradient>
    <linearGradient
       id="linear-gradient-1-7"
       x1="256"
       y1="496"
       x2="256"
       y2="16"
       gradientUnits="userSpaceOnUse"
       gradientTransform="matrix(0.13780527,0,0,0.13780527,4.4084086,4.4090048)">
      <stop
         offset="0"
         stop-color="#12c2e9"
         id="stop4041-9" />
      <stop
         offset="0.5"
         stop-color="#c471ed"
         id="stop4043-5" />
      <stop
         offset="1"
         stop-color="#f64f59"
         id="stop4045-7" />
    </linearGradient>
    <linearGradient
       inkscape:collect="always"
       xlink:href="#linear-gradient"
       id="linearGradient5416"
       x1="184"
       y1="480"
       x2="184"
       y2="16"
       gradientUnits="userSpaceOnUse" />
    <linearGradient
       inkscape:collect="always"
       xlink:href="#linear-gradient"
       id="linearGradient1303"
       gradientUnits="userSpaceOnUse"
       x1="184"
       y1="480"
       x2="184"
       y2="16" />
    <linearGradient
       inkscape:collect="always"
       xlink:href="#linear-gradient"
       id="linearGradient1305"
       gradientUnits="userSpaceOnUse"
       x1="184"
       y1="480"
       x2="184"
       y2="16" />
    <linearGradient
       inkscape:collect="always"
       xlink:href="#linear-gradient"
       id="linearGradient1307"
       gradientUnits="userSpaceOnUse"
       x1="184"
       y1="480"
       x2="184"
       y2="16" />
  </defs>
  <sodipodi:namedview
     id="base"
     pagecolor="#ffffff"
     bordercolor="#666666"
     borderopacity="1.0"
     inkscape:pageopacity="0.0"
     inkscape:pageshadow="2"
     inkscape:zoom="0.35"
     inkscape:cx="400"
     inkscape:cy="560"
     inkscape:document-units="mm"
     inkscape:current-layer="layer1"
     inkscape:document-rotation="0"
     showgrid="false"
     units="px"
     inkscape:window-width="1498"
     inkscape:window-height="1041"
     inkscape:window-x="-8"
     inkscape:window-y="0"
     inkscape:window-maximized="0" />
  <metadata
     id="metadata5">
    <rdf:RDF>
      <cc:Work
         rdf:about="">
        <dc:format>image/svg+xml</dc:format>
        <dc:type
           rdf:resource="http://purl.org/dc/dcmitype/StillImage" />
        <dc:title></dc:title>
      </cc:Work>
    </rdf:RDF>
  </metadata>
  <g
     inkscape:label="Layer 1"
     inkscape:groupmode="layer"
     id="layer1">
    <g
       fill="url(#linear0)"
       id="g5147"
       transform="matrix(0.13780382,0,0,0.13780382,14.331597,6.6145832)"
       style="fill:url(#linearGradient5416);fill-opacity:1">
      <path
         d="m 184,480 c -2.23438,0 -4.36719,-0.93359 -5.87891,-2.57422 C 170.83984,469.52734 0,283.03125 0,184 0,82.378906 82.378906,0 184,0 285.62109,0 368,82.378906 368,184 368,283.03125 197.16016,469.52734 189.87891,477.42578 188.36719,479.06641 186.23437,480 184,480 Z M 184,16 C 91.257812,16.101562 16.101562,91.257812 16,184 16,267.00781 153.60156,425.95312 184,460.04687 214.39844,425.95312 352,266.98437 352,184 351.89453,91.261719 276.73828,16.105469 184,16 Z m 0,0"
         id="path5141"
         style="fill:url(#linearGradient1303);fill-opacity:1" />
      <path
         d="M 184,320 C 108.89063,320 48,259.10937 48,184 48,108.89063 108.89063,48 184,48 c 75.10937,0 136,60.89063 136,136 -0.082,75.07422 -60.92578,135.91797 -136,136 z m 0,-256 c -66.27344,0 -120,53.72656 -120,120 0,66.27344 53.72656,120 120,120 66.27344,0 120,-53.72656 120,-120 C 303.92578,117.75781 250.24219,64.074219 184,64 Z m 0,0"
         id="path5143"
         style="fill:url(#linearGradient1305);fill-opacity:1" />
      <path
         d="m 229.64844,262.88672 c -3.38672,-0.0156 -6.67969,-1.10547 -9.41016,-3.10938 L 184,233.44141 147.75391,259.77734 c -5.60938,4.06641 -13.19922,4.06641 -18.80469,-0.008 -5.60547,-4.07422 -7.95313,-11.29297 -5.8125,-17.88281 l 13.83984,-42.60547 -36.25,-26.33594 C 95.121094,168.87109 92.773438,161.64844 94.917969,155.05469 97.058594,148.46094 103.20313,144 110.13672,144 h 44.80078 l 13.86328,-42.60937 C 170.95703,94.824219 177.08984,90.386719 184,90.386719 c 6.91016,0 13.04297,4.4375 15.19922,11.003911 L 213.0625,144 h 44.80078 c 6.9336,0 13.07813,4.46094 15.21875,11.05469 2.14453,6.59375 -0.20312,13.8164 -5.80859,17.89062 l -36.25,26.33594 13.83984,42.60547 c 2.22656,6.58984 -0.1289,13.85937 -5.80078,17.89062 -2.72656,2.00782 -6.02734,3.09766 -9.41406,3.10938 z M 184,217.43359 c 3.37891,0 6.66797,1.07422 9.39844,3.0625 l 36.25,26.33594 -13.83985,-42.60937 c -2.16015,-6.58985 0.1875,-13.82032 5.8086,-17.88672 L 257.86328,160 H 213.0625 c -6.92578,-0.008 -13.05859,-4.46875 -15.19922,-11.05469 L 184,106.33594 v -0.0977 l -13.83984,42.70703 c -2.14453,6.59375 -8.28907,11.0586 -15.22266,11.05469 h -44.80078 l 36.26172,26.33594 c 5.60547,4.07422 7.94922,11.29297 5.80859,17.8789 l -13.83984,42.61719 36.24219,-26.33594 c 2.72656,-1.98828 6.01562,-3.05859 9.39062,-3.0625 z m 0,0"
         id="path5145"
         style="fill:url(#linearGradient1307);fill-opacity:1" />
    </g>
  </g>
</svg>
