<?xml version="1.0" encoding="UTF-8" standalone="no"?>
<svg
   xmlns:dc="http://purl.org/dc/elements/1.1/"
   xmlns:cc="http://creativecommons.org/ns#"
   xmlns:rdf="http://www.w3.org/1999/02/22-rdf-syntax-ns#"
   xmlns:svg="http://www.w3.org/2000/svg"
   xmlns="http://www.w3.org/2000/svg"
   xmlns:sodipodi="http://sodipodi.sourceforge.net/DTD/sodipodi-0.dtd"
   xmlns:inkscape="http://www.inkscape.org/namespaces/inkscape"
   width="300"
   height="300"
   viewBox="0 0 79.374998 79.375002"
   version="1.1"
   id="svg8"
   inkscape:export-filename="C:\Users\Juan\OneDrive - Knights - University of Central Florida\Downloads\swamphacks_images\Icons\shopping.png"
   inkscape:export-xdpi="96"
   inkscape:export-ydpi="96"
   inkscape:version="1.0.1 (3bc2e813f5, 2020-09-07)"
   sodipodi:docname="shopping.svg">
  <defs
     id="defs2">
    <linearGradient
       id="linear-gradient-1"
       x1="256"
       y1="496"
       x2="256"
       y2="16"
       gradientUnits="userSpaceOnUse"
       gradientTransform="matrix(0.13780527,0,0,0.13780527,4.4084079,4.4090048)">
      <stop
         offset="0"
         stop-color="#12c2e9"
         id="stop4041" />
      <stop
         offset="0.5"
         stop-color="#c471ed"
         id="stop4043" />
      <stop
         offset="1"
         stop-color="#f64f59"
         id="stop4045" />
    </linearGradient>
    <linearGradient
       id="linear-gradient"
       x1="256"
       y1="496"
       x2="256"
       y2="16"
       gradientUnits="userSpaceOnUse"
       gradientTransform="matrix(0.11815586,0,0,0.11815586,-40.355523,-59.649114)"
       spreadMethod="pad">
      <stop
         offset="0"
         stop-color="#12c2e9"
         id="stop3722" />
      <stop
         offset="0.5"
         stop-color="#c471ed"
         id="stop3724" />
      <stop
         offset="1"
         stop-color="#f64f59"
         id="stop3726" />
    </linearGradient>
    <linearGradient
       id="linear-gradient-1-7"
       x1="256"
       y1="496"
       x2="256"
       y2="16"
       gradientUnits="userSpaceOnUse"
       gradientTransform="matrix(0.13780527,0,0,0.13780527,4.4084086,4.4090048)">
      <stop
         offset="0"
         stop-color="#12c2e9"
         id="stop4041-9" />
      <stop
         offset="0.5"
         stop-color="#c471ed"
         id="stop4043-5" />
      <stop
         offset="1"
         stop-color="#f64f59"
         id="stop4045-7" />
    </linearGradient>
    <linearGradient
       id="linear-gradient-8"
       x1="256"
       y1="480"
       x2="256"
       y2="32"
       gradientUnits="userSpaceOnUse"
       gradientTransform="matrix(0.14764692,0,0,0.14764692,1.8898422,1.8898985)">
      <stop
         offset="0"
         stop-color="#12c0e7"
         id="stop7316" />
      <stop
         offset="0.5"
         stop-color="#c271eb"
         id="stop7318" />
      <stop
         offset="1"
         stop-color="#f44f5a"
         id="stop7320" />
    </linearGradient>
  </defs>
  <sodipodi:namedview
     id="base"
     pagecolor="#ffffff"
     bordercolor="#666666"
     borderopacity="1.0"
     inkscape:pageopacity="0.0"
     inkscape:pageshadow="2"
     inkscape:zoom="0.35"
     inkscape:cx="400"
     inkscape:cy="560"
     inkscape:document-units="mm"
     inkscape:current-layer="layer1"
     inkscape:document-rotation="0"
     showgrid="false"
     units="px"
     inkscape:window-width="1498"
     inkscape:window-height="1041"
     inkscape:window-x="-8"
     inkscape:window-y="0"
     inkscape:window-maximized="0" />
  <metadata
     id="metadata5">
    <rdf:RDF>
      <cc:Work
         rdf:about="">
        <dc:format>image/svg+xml</dc:format>
        <dc:type
           rdf:resource="http://purl.org/dc/dcmitype/StillImage" />
        <dc:title></dc:title>
      </cc:Work>
    </rdf:RDF>
  </metadata>
  <g
     inkscape:label="Layer 1"
     inkscape:groupmode="layer"
     id="layer1">
    <path
       d="m 72.756965,40.778028 a 1.1811754,1.1811754 0 0 0 -1.17777,-1.090519 h -16.9484 l -0.77071,-15.414341 a 1.1811754,1.1811754 0 0 0 -1.1797,-1.12211 h -8.26823 v -5.90588 A 10.626887,10.626887 0 0 0 30.238055,7.2240884 10.626887,10.626887 0 0 0 16.063945,17.245178 v 5.90588 H 7.7957172 a 1.1811754,1.1811754 0 0 0 -1.1797,1.12211 l -2.362348,47.24701 a 1.1811754,1.1811754 0 0 0 1.179698,1.240239 H 73.941545 a 1.1811754,1.1811754 0 0 0 1.17778,-1.271828 z m -3.54012,25.843529 2.51767,3.776512 h -5.03476 z m 3.20039,0.541711 -2.05436,-3.08138 -2.20319,-22.032029 h 2.32574 z m -6.63171,-25.113409 2.2147,22.139058 -2.59268,3.888142 -2.00224,-26.0272 z m -13.52003,-2.36235 h -2.22312 l -0.83391,-14.174111 h 2.34759 z m -5.42351,-14.174111 0.83391,14.174111 h -2.49524 l -0.7087,-14.174111 z M 33.781575,8.9769485 a 8.2776772,8.2776772 0 0 1 8.26823,8.2682295 v 5.90588 h -4.7247 v -5.90588 a 10.613746,10.613746 0 0 0 -3.94616,-8.2580495 c 0.13347,-0.006 0.26754,-0.0102 0.40263,-0.0102 z m -3.54352,0.7993599 a 8.2784154,8.2784154 0 0 1 4.7247,7.4688696 v 5.90588 h -9.44941 v -5.90588 a 8.2784154,8.2784154 0 0 1 4.72471,-7.4688696 z m -11.81176,7.4688696 a 8.2776772,8.2776772 0 0 1 8.26823,-8.2682295 c 0.13509,0 0.26916,0.004 0.40263,0.0102 a 10.613304,10.613304 0 0 0 -3.94616,8.2580495 v 5.90587 h -4.7247 z m 14.26152,53.152891 H 6.6750802 l 2.244229,-44.884671 h 7.1446358 v 7.636161 l -3.017604,2.011688 a 1.1811754,1.1811754 0 0 0 -0.525921,0.982742 v 9.449398 a 1.1811754,1.1811754 0 0 0 1.181177,1.181171 h 7.087048 a 1.1811754,1.1811754 0 0 0 1.18118,-1.181171 v -9.449398 a 1.1811754,1.1811754 0 0 0 -0.52592,-0.982742 l -3.01761,-2.011688 v -7.636161 h 16.53646 v 3.54353 a 1.1811754,1.1811754 0 0 0 2.36235,0 v -3.54353 h 4.78228 l 0.70871,14.174111 h -6.67217 a 1.1811754,1.1811754 0 0 0 -1.17778,1.090519 z m -15.442692,-35.196812 2.362352,1.5748 v 7.636151 h -4.724707 v -7.636151 z m 19.992572,6.848602 h 23.79832 l 2.1806,28.34821 h -28.15952 z m 18.98621,5.905879 v 9.449411 a 5.9125212,5.9125212 0 0 1 -5.90587,5.90587 h -2.36235 a 5.9125212,5.9125212 0 0 1 -5.90588,-5.90587 v -9.449411 a 1.1811756,1.1811756 0 0 1 2.36235,0 v 9.449411 a 3.5475127,3.5475127 0 0 0 3.54353,3.54352 h 2.36235 a 3.5475127,3.5475127 0 0 0 3.54352,-3.54352 v -9.449411 a 1.1811755,1.1811755 0 0 1 2.36235,0 z"
       style="fill:url(#linear-gradient-8);stroke-width:0.147646"
       id="path7325" />
  </g>
</svg>
