<?xml version="1.0" encoding="UTF-8" standalone="no"?>
<svg
   xmlns:dc="http://purl.org/dc/elements/1.1/"
   xmlns:cc="http://creativecommons.org/ns#"
   xmlns:rdf="http://www.w3.org/1999/02/22-rdf-syntax-ns#"
   xmlns:svg="http://www.w3.org/2000/svg"
   xmlns="http://www.w3.org/2000/svg"
   xmlns:xlink="http://www.w3.org/1999/xlink"
   xmlns:sodipodi="http://sodipodi.sourceforge.net/DTD/sodipodi-0.dtd"
   xmlns:inkscape="http://www.inkscape.org/namespaces/inkscape"
   width="300"
   height="300"
   viewBox="0 0 79.374998 79.375002"
   version="1.1"
   id="svg8"
   inkscape:export-filename="C:\Users\Juan\OneDrive - Knights - University of Central Florida\Downloads\swamphacks_images\Icons\tourist_attraction.png"
   inkscape:export-xdpi="96"
   inkscape:export-ydpi="96"
   inkscape:version="1.0.1 (3bc2e813f5, 2020-09-07)"
   sodipodi:docname="tourist_attraction.svg">
  <defs
     id="defs2">
    <linearGradient
       id="linear-gradient-1"
       x1="256"
       y1="496"
       x2="256"
       y2="16"
       gradientUnits="userSpaceOnUse"
       gradientTransform="matrix(0.13780527,0,0,0.13780527,4.4084079,4.4090048)">
      <stop
         offset="0"
         stop-color="#12c2e9"
         id="stop4041" />
      <stop
         offset="0.5"
         stop-color="#c471ed"
         id="stop4043" />
      <stop
         offset="1"
         stop-color="#f64f59"
         id="stop4045" />
    </linearGradient>
    <linearGradient
       id="linear-gradient"
       x1="256"
       y1="496"
       x2="256"
       y2="16"
       gradientUnits="userSpaceOnUse"
       gradientTransform="matrix(0.11815586,0,0,0.11815586,-40.355523,-59.649114)"
       spreadMethod="pad">
      <stop
         offset="0"
         stop-color="#12c2e9"
         id="stop3722" />
      <stop
         offset="0.5"
         stop-color="#c471ed"
         id="stop3724" />
      <stop
         offset="1"
         stop-color="#f64f59"
         id="stop3726" />
    </linearGradient>
    <linearGradient
       id="linear-gradient-1-7"
       x1="256"
       y1="496"
       x2="256"
       y2="16"
       gradientUnits="userSpaceOnUse"
       gradientTransform="matrix(0.13780527,0,0,0.13780527,4.4084086,4.4090048)">
      <stop
         offset="0"
         stop-color="#12c2e9"
         id="stop4041-9" />
      <stop
         offset="0.5"
         stop-color="#c471ed"
         id="stop4043-5" />
      <stop
         offset="1"
         stop-color="#f64f59"
         id="stop4045-7" />
    </linearGradient>
    <linearGradient
       id="linear-gradient-8"
       x1="256"
       y1="480"
       x2="256"
       y2="32"
       gradientUnits="userSpaceOnUse"
       gradientTransform="matrix(0.14764692,0,0,0.14764692,1.8898422,1.8898985)">
      <stop
         offset="0"
         stop-color="#12c0e7"
         id="stop7316" />
      <stop
         offset="0.5"
         stop-color="#c271eb"
         id="stop7318" />
      <stop
         offset="1"
         stop-color="#f44f5a"
         id="stop7320" />
    </linearGradient>
    <linearGradient
       inkscape:collect="always"
       xlink:href="#linear-gradient"
       id="linearGradient5392"
       x1="77.47052"
       y1="86.875473"
       x2="77.47052"
       y2="20.280937"
       gradientUnits="userSpaceOnUse"
       gradientTransform="matrix(0.96000283,0,0,0.96000283,-33.109596,-11.133007)" />
  </defs>
  <sodipodi:namedview
     id="base"
     pagecolor="#ffffff"
     bordercolor="#666666"
     borderopacity="1.0"
     inkscape:pageopacity="0.0"
     inkscape:pageshadow="2"
     inkscape:zoom="0.35"
     inkscape:cx="400"
     inkscape:cy="560"
     inkscape:document-units="mm"
     inkscape:current-layer="layer1"
     inkscape:document-rotation="0"
     showgrid="false"
     units="px"
     inkscape:window-width="1498"
     inkscape:window-height="1041"
     inkscape:window-x="-8"
     inkscape:window-y="0"
     inkscape:window-maximized="0" />
  <metadata
     id="metadata5">
    <rdf:RDF>
      <cc:Work
         rdf:about="">
        <dc:format>image/svg+xml</dc:format>
        <dc:type
           rdf:resource="http://purl.org/dc/dcmitype/StillImage" />
        <dc:title></dc:title>
      </cc:Work>
    </rdf:RDF>
  </metadata>
  <g
     inkscape:label="Layer 1"
     inkscape:groupmode="layer"
     id="layer1">
    <path
       d="m 79.236334,28.512513 -2.64584,-5.291676 a 1.3229188,1.3229188 0 0 0 -1.18318,-0.731243 v -5.291675 h -0.003 a 1.3201076,1.3201076 0 0 0 -0.13578,-0.589028 l -3.94678,-7.937514 a 1.3229188,1.3229188 0 0 0 -2.36918,0 l -3.94661,7.937514 a 1.3181231,1.3181231 0 0 0 -0.13593,0.589028 h -0.003 v 5.291675 h -0.0442 a 1.3229188,1.3229188 0 0 0 -1.18318,0.731243 l -2.64583,5.291676 a 1.3186193,1.3186193 0 0 0 -0.13723,0.591676 h -0.003 v 13.229189 a 1.3229188,1.3229188 0 0 0 1.32293,1.322919 h 2.64583 V 54.432451 L 51.358124,35.006714 a 1.3229188,1.3229188 0 0 0 -2.17454,0 l -10.40145,15.00587 -4.60012,-7.077623 a 1.3229188,1.3229188 0 0 0 -2.21854,0 l -4.18869,6.444112 q -0.88238,-2.205302 -1.68292,-4.399872 h 0.36645 a 1.3229188,1.3229188 0 0 0 0,-2.645823 h -1.29764 c -2.34305,-6.888604 -4.04499,-13.864365 -4.94938,-21.545718 a 3.9675991,3.9675991 0 0 0 -0.36759,-7.330963 V 9.260406 a 1.3229223,1.3229223 0 0 0 -2.64584,0 v 4.196291 a 3.9675991,3.9675991 0 0 0 -0.36761,7.330963 c -0.90439,7.681353 -2.60632,14.657114 -4.94937,21.545718 h -1.29762 a 1.3229188,1.3229188 0 0 0 0,2.645823 h 0.36645 C 9.6744239,48.480477 8.2377339,51.981425 6.6619639,55.562568 h -1.37038 a 1.322919,1.322919 0 0 0 0,2.645836 h 0.18852 c -1.65364,3.646451 -3.44255,7.394946 -5.34789995,11.329797 a 1.3229188,1.3229188 0 0 0 1.19062995,1.899392 h 7.93751 a 1.3229188,1.3229188 0 0 0 1.3229201,-1.322931 c 0,-3.647276 3.5608,-6.61458 7.93752,-6.61458 0.025,0 0.0497,0.0013 0.0747,0.0013 l -3.82985,5.891948 a 1.3229188,1.3229188 0 0 0 1.10926,2.043913 h 58.20843 a 1.3229188,1.3229188 0 0 0 1.32292,-1.322819 V 43.65607 h 2.64584 a 1.3229188,1.3229188 0 0 0 1.32292,-1.32292 V 29.103961 h -0.003 a 1.3186193,1.3186193 0 0 0 -0.13721,-0.591676 z m -9.09871,-16.280675 1.81158,3.643162 h -3.62299 z m -2.62366,6.289 h 5.24751 v 3.968756 h -5.24751 z m -1.87244,6.614594 h 8.94821 l 1.32293,2.645838 h -11.59406 z m -36.61789,27.179357 4.05028,-6.231106 4.08088,6.278409 -4.98079,7.185758 q -0.30825,-0.671701 -0.61185,-1.339446 h 0.18884 a 1.322919,1.322919 0 0 0 0,-2.645836 h -1.37038 q -0.72761,-1.653653 -1.41585,-3.285969 z M 18.521804,15.875 a 1.3229188,1.3229188 0 1 1 -1.32292,1.322919 1.324407,1.324407 0 0 1 1.32292,-1.322919 z m 0,11.527909 a 107.13757,107.13757 0 0 0 3.85863,14.930469 h -7.71726 a 107.13757,107.13757 0 0 0 3.85863,-14.930469 z m -4.77061,17.576292 h 9.54155 c 1.23676,3.459768 2.63857,6.947479 4.21516,10.583367 h -2.97195 c -2.04424,-3.298536 -2.04539,-5.436383 -2.04539,-6.614609 a 1.3229188,1.3229188 0 0 0 -1.32292,-1.322904 h -5.29168 a 1.3229188,1.3229188 0 0 0 -1.32292,1.322904 c 0,1.178226 -9.5e-4,3.316073 -2.04539,6.614609 H 9.5348739 C 11.111314,51.927349 12.514754,48.438472 13.751194,44.979201 Z m 7.7437,10.583367 h -5.94619 c 1.16153,-2.248974 1.50582,-4.02582 1.60752,-5.291677 h 2.73118 c 0.10162,1.265857 0.44599,3.042703 1.60749,5.291677 z m -3.18113,13.229172 3.13533,-4.823523 c 2.455,0.814927 4.31189,2.621198 4.85048,4.823523 z m 10.68159,0 c -0.73604,-4.481388 -5.15128,-7.93751 -10.47355,-7.93751 -5.32227,0 -9.7399901,3.456122 -10.4757001,7.93751 h -4.61468 c 1.79538,-3.73194 3.43795,-7.228744 4.93814,-10.583336 H 28.673384 c 1.49987,3.353925 3.14375,6.852053 4.9388,10.583336 z m 7.55437,0 q -1.59991,-3.309606 -3.08405,-6.46294 l 14.62998,-21.106521 -4.19812,27.569461 z m 10.02409,0 1.20881,-7.93751 h 2.48923 a 1.3229188,1.3229188 0 0 0 0,-2.645826 h -2.0864 l 1.20865,-7.937513 h 2.20068 a 1.322919,1.322919 0 0 0 0,-2.645836 h -1.79785 l 1.27694,-8.385323 5.81258,8.385323 a 1.322919,1.322919 0 0 0 0,2.645836 h 1.83373 l 12.8376,18.520849 z m 26.18766,-2.90776 -5.32028,-7.675576 h 0.0286 V 43.656297 h 5.29167 z m 3.96876,-24.873519 H 63.501044 V 30.427108 h 13.22919 z m -6.6146,-1.322922 a 3.9687563,3.9687563 0 1 0 -3.96875,-3.968755 3.9732212,3.9732212 0 0 0 3.96875,3.968755 z m 0,-5.291674 a 1.3229188,1.3229188 0 1 1 -1.32291,1.322919 1.324407,1.324407 0 0 1 1.32291,-1.322919 z m -18.52085,19.843784 a 1.3229188,1.3229188 0 0 1 1.32291,-1.322932 h 2.64584 a 1.3229261,1.3229261 0 0 1 0,2.645851 h -2.64584 a 1.3229188,1.3229188 0 0 1 -1.32291,-1.322919 z m 5.29167,10.583336 a 1.3229188,1.3229188 0 0 1 -1.32292,1.322933 h -2.64584 a 1.322919,1.322919 0 0 1 0,-2.645836 h 2.64584 a 1.3229188,1.3229188 0 0 1 1.32292,1.322903 z m 3.96875,0 a 1.3229188,1.3229188 0 0 1 1.32293,-1.322903 h 2.64583 a 1.322919,1.322919 0 0 1 0,2.645836 h -2.64583 a 1.3229188,1.3229188 0 0 1 -1.32293,-1.322933 z m -3.96875,-6.614581 h 2.64584 a 1.3229188,1.3229188 0 0 1 0,2.645826 h -2.64584 a 1.3229188,1.3229188 0 0 1 0,-2.645826 z"
       style="fill:url(#linearGradient5392);fill-opacity:1;stroke-width:0.165365"
       id="path4092" />
  </g>
</svg>
